<?xml version="1.0" encoding="UTF-8"?>
<svg width="194px" height="61px" viewBox="0 0 194 61" version="1.1" xmlns="http://www.w3.org/2000/svg" xmlns:xlink="http://www.w3.org/1999/xlink">
    <!-- Generator: Sketch 52.6 (67491) - http://www.bohemiancoding.com/sketch -->
    <title>appstore-badge</title>
    <desc>Created with Sketch.</desc>
    <g id="Page-1" stroke="none" stroke-width="1" fill="none" fill-rule="evenodd">
        <g id="Download" transform="translate(-796.000000, -629.000000)">
            <g id="Group-2" transform="translate(796.000000, 629.000000)">
                <g id="appstore-badge">
                    <path d="M12.4572359,60.9968106 C11.9559731,60.9968106 11.4668192,60.9905913 10.9694887,60.9797475 C9.93922799,60.966736 8.91137532,60.8798005 7.89436037,60.7196539 C6.94604523,60.5613463 6.02738277,60.2668653 5.16867476,59.8459244 C4.31784063,59.4284712 3.54181151,58.881095 2.87031605,58.2247647 C2.18910083,57.5761657 1.62195805,56.8239015 1.19136254,55.9977831 C0.756022246,55.1662956 0.454740851,54.2750411 0.298013383,53.3550664 C0.128761324,52.3665431 0.0371889468,51.3669902 0.024085878,50.3650267 C0.013655245,50.028707 0,48.9089172 0,48.9089172 L0,12.0707346 C0,12.0707346 0.0145436585,10.9681515 0.0241681384,10.6442225 C0.0367142266,9.64384619 0.127754109,8.64584437 0.29649979,7.65885522 C0.453516555,6.73636032 0.75503119,5.84253584 1.19060575,5.00832453 C1.61961871,4.18277671 2.18361283,3.4299508 2.86072447,2.77903064 C3.53707505,2.12192583 4.31558654,1.57173092 5.1678686,1.14851014 C6.02460306,0.728921619 6.94152937,0.436517966 7.8879276,0.281095629 C8.90828262,0.119340282 9.93970355,0.0318875129 10.9735359,0.0194711387 L12.4580419,0 L181.533913,0 L183.036154,0.0202525358 C184.060583,0.0320519465 185.082634,0.11872452 186.093613,0.279532835 C187.049592,0.436904715 187.976074,0.731348624 188.842595,1.15318258 C190.550024,2.00609508 191.939328,3.35548311 192.815778,5.01221557 C193.2444,5.84066798 193.541264,6.7272015 193.696294,7.64172828 C193.867049,8.6368157 193.962616,9.64266022 193.982232,10.6512392 C193.987003,11.1028548 193.987003,11.5879588 193.987003,12.0707346 C194,12.6687426 194,13.2379344 194,13.8117988 L194,47.1864948 C194,47.7658449 194,48.3311618 193.987003,48.9011032 C193.987003,49.4196957 193.987003,49.8947532 193.980587,50.3836845 C193.961395,51.3742658 193.867422,52.3621567 193.69942,53.3394385 C193.545905,54.2660496 193.246264,55.1642608 192.811007,56.0025672 C192.377367,56.819719 191.813481,57.5654669 191.140131,58.2123262 C190.468032,58.8721835 189.690633,59.4227623 188.837824,59.8428944 C187.973703,60.2670714 187.048585,60.5626413 186.093613,60.7196539 C185.076675,60.8806551 184.048724,60.9675962 183.018386,60.9797475 C182.536504,60.9905913 182.031918,60.9968106 181.541974,60.9968106 L179.758567,61 L12.4572359,60.9968106 Z" id="Background-Black" fill="#000000"></path>
                    <path d="M67.3555023,41.2099164 L59.4989007,41.2099164 L57.6121477,46.5289591 L54.2844037,46.5289591 L61.7260498,26.8498718 L65.1834592,26.8498718 L72.6251054,46.5289591 L69.240612,46.5289591 L67.3555023,41.2099164 Z M60.3125952,38.7554503 L66.5402475,38.7554503 L63.470224,30.1230375 L63.3843117,30.1230375 L60.3125952,38.7554503 Z M88.6965315,39.3559176 C88.6965315,43.8145034 86.1970719,46.6790641 82.4251927,46.6790641 C80.4755412,46.7764367 78.6390762,45.8014615 77.6969738,44.1688632 L77.6256014,44.1688632 L77.6256014,51.2753623 L74.5409882,51.2753623 L74.5409882,32.1813229 L77.5267757,32.1813229 L77.5267757,34.5676936 L77.5835084,34.5676936 C78.5674647,32.9453303 80.40591,31.9707748 82.3684599,32.0312021 C86.1824157,32.031218 88.6965315,34.9097085 88.6965315,39.3559176 Z M85.5260059,39.3559176 C85.5260059,36.4511207 83.9537062,34.5413872 81.5547488,34.5413872 C79.1979343,34.5413872 77.6126714,36.491341 77.6126714,39.3559176 C77.6126714,42.2468005 79.1979343,44.1828246 81.5547488,44.1828246 C83.9537228,44.1828246 85.5260059,42.2870366 85.5260059,39.3559176 Z M105.236393,39.3559176 C105.236393,43.8145034 102.736933,46.6790641 98.9650536,46.6790641 C97.0154025,46.7764367 95.1789371,45.8014615 94.2368349,44.1688632 L94.1654624,44.1688632 L94.1654624,51.2753623 L91.0808491,51.2753623 L91.0808491,32.1813229 L94.0665705,32.1813229 L94.0665705,34.5676936 L94.123303,34.5676936 C95.1072666,32.9453313 96.9457192,31.9707815 98.9082712,32.031218 C102.722343,32.031218 105.236393,34.9097085 105.236393,39.3559176 Z M102.065867,39.3559176 C102.065867,36.4511207 100.493567,34.5413872 98.0946103,34.5413872 C95.7377951,34.5413872 94.152533,36.491341 94.152533,39.3559176 C94.152533,42.2468005 95.7377951,44.1828246 98.0946103,44.1828246 C100.493584,44.1828246 102.065884,42.2870366 102.065884,39.3559176 L102.065867,39.3559176 Z M116.167881,41.0458659 C116.396439,42.9973728 118.382084,44.2787003 121.095478,44.2787003 C123.695439,44.2787003 125.565976,42.9973094 125.565976,41.2376966 C125.565976,39.7102299 124.437812,38.7956389 121.766544,38.1688493 L119.095276,37.5544522 C115.310434,36.6816186 113.553346,34.9916545 113.553346,32.2493393 C113.553346,28.8539439 116.652549,26.5217391 121.053335,26.5217391 C125.408708,26.5217391 128.394479,28.8539439 128.494981,32.2493393 L125.381155,32.2493393 C125.194757,30.2854557 123.494402,29.1000197 121.009533,29.1000197 C118.524662,29.1000197 116.824324,30.2994012 116.824324,32.0450685 C116.824324,33.4363441 117.910346,34.2550119 120.567024,34.8817222 L122.837926,35.414094 C127.066903,36.3689529 128.823991,37.9908532 128.823991,40.8693119 C128.823991,44.5510033 125.752341,46.8569017 120.866887,46.8569017 C116.295887,46.8569017 113.209663,44.6051691 113.010285,41.0457233 L116.167881,41.0458659 Z M135.481139,28.7859277 L135.481139,32.1813229 L138.338821,32.1813229 L138.338821,34.5135277 L135.481139,34.5135277 L135.481139,42.4232119 C135.481139,43.65199 136.053329,44.2245979 137.309533,44.2245979 C137.648786,44.2189499 137.987491,44.1962038 138.324232,44.1564548 L138.324232,46.4747299 C137.759441,46.5754859 137.185379,46.6211179 136.610914,46.610921 C133.56846,46.610921 132.381936,45.519871 132.381936,42.7373198 L132.381936,34.5135277 L130.196946,34.5135277 L130.196946,32.1813229 L132.381902,32.1813229 L132.381902,28.7859277 L135.481139,28.7859277 Z M139.993847,39.3559176 C139.993847,34.8416288 142.77858,32.0049116 147.121039,32.0049116 C151.478073,32.0049116 154.249842,34.8415654 154.249842,39.3559176 C154.249842,43.882599 151.492662,46.7069235 147.121039,46.7069235 C142.75096,46.7069235 139.993847,43.882583 139.993847,39.3559176 Z M151.10687,39.3559176 C151.10687,36.2592108 149.620483,34.4315183 147.121023,34.4315183 C144.621564,34.4315183 143.136802,36.2731405 143.136802,39.3559176 C143.136802,42.465001 144.621564,44.2787796 147.121023,44.2787796 C149.620483,44.2787796 151.106803,42.465001 151.106803,39.3559176 L151.10687,39.3559176 Z M156.793005,32.1813229 L159.734973,32.1813229 L159.734973,34.6233808 L159.806346,34.6233808 C160.216614,33.0513174 161.72532,31.9693687 163.42099,32.0311863 C163.776464,32.0300013 164.130957,32.0668596 164.477832,32.141071 L164.477832,34.8957629 C164.029067,34.7648383 163.560929,34.7047266 163.09188,34.7177985 C162.185034,34.6826738 161.307407,35.0277302 160.68944,35.6623662 C160.071473,36.297002 159.774903,37.1578132 159.877602,38.018776 L159.877602,46.5289275 L156.792988,46.5289275 L156.793005,32.1813229 Z M178.699735,42.3148802 C178.284779,44.9194513 175.628085,46.7069077 172.229018,46.7069077 C167.857396,46.7069077 165.143984,43.9104266 165.143984,39.4239972 C165.143984,34.9236381 167.871986,32.0048957 172.099352,32.0048957 C176.257008,32.0048957 178.87156,34.7317282 178.87156,39.0819824 L178.87156,40.0910071 L168.257778,40.0910071 L168.257778,40.2689714 C168.158682,41.3371247 168.544996,42.3944483 169.318454,43.1719932 C170.091912,43.9495382 171.177965,44.3723627 172.300357,44.3329138 C173.797255,44.4668222 175.208537,43.6461546 175.770746,42.3148644 L178.699735,42.3148802 Z M168.272326,38.0327374 L175.78532,38.0327216 C175.841298,37.0729144 175.475359,36.1343237 174.775667,35.4430811 C174.075975,34.7518384 173.10597,34.3706181 172.099352,34.3912664 C171.084773,34.3854857 170.109809,34.7668847 169.391163,35.4506904 C168.672518,36.1344961 168.269739,37.0640486 168.272326,38.0327374 Z" id="App-Store" fill="#FFFFFF" fill-rule="nonzero"></path>
                    <path d="M60.5324707,11.9424012 C61.8423395,11.8558123 63.1253269,12.3148861 64.0282995,13.1932657 C64.9312719,14.0716452 65.3590512,15.2767446 65.1938938,16.4768682 C65.1938938,19.3923131 63.4833616,21.0681682 60.5324707,21.0681682 L56.9541284,21.0681682 L56.9541284,11.9424012 L60.5324707,11.9424012 Z M58.4927889,19.7775877 L60.360599,19.7775877 C61.2966988,19.829132 62.2081811,19.4893835 62.8419614,18.8526775 C63.4757418,18.2159715 63.764346,17.3500938 63.6276395,16.4954659 C63.7543999,15.6443847 63.4616395,14.785652 62.8294306,14.1541384 C62.1972217,13.5226248 61.2917242,13.1844172 60.360599,13.2320182 L58.4927889,13.2320182 L58.4927889,19.7775877 Z M66.9319865,17.6216344 C66.8037919,16.3872217 67.446346,15.1925766 68.5901635,14.5387299 C69.733981,13.8848833 71.181299,13.8848833 72.3251165,14.5387299 C73.4689339,15.1925766 74.1114881,16.3872217 73.9832934,17.6216344 C74.1139271,18.8573735 73.4719595,20.0543357 72.3271279,20.70959 C71.1822962,21.3648442 69.7329837,21.3648442 68.5881521,20.70959 C67.4433204,20.0543357 66.8013528,18.8573735 66.9319865,17.6216344 Z M72.4656853,17.6216344 C72.4656853,16.1288196 71.7376876,15.2558302 70.4600723,15.2558302 C69.1775758,15.2558302 68.4561196,16.1288196 68.4561196,17.6216497 C68.4561196,19.1264246 69.1776256,19.9926845 70.4600723,19.9926845 C71.7377208,19.9926692 72.4657019,19.1204292 72.4657019,17.6216344 L72.4656853,17.6216344 Z M83.3563961,21.0680305 L81.8258378,21.0680305 L80.2806857,15.9958676 L80.1639517,15.9958676 L78.6252747,21.0680305 L77.1092936,21.0680305 L75.0485429,14.1811876 L76.5450656,14.1811876 L77.8843103,19.4362532 L77.9945691,19.4362532 L79.5316191,14.1811876 L80.9470705,14.1811876 L82.4841205,19.4362532 L82.6008545,19.4362532 L83.9336075,14.1811876 L85.4090447,14.1811876 L83.3563961,21.0680305 Z M87.1422895,14.1811876 L88.5625888,14.1811876 L88.5625888,15.2752231 L88.6728478,15.2752231 C89.0562633,14.4697237 89.9521945,13.9769917 90.9038428,14.048251 C91.6407011,13.9972172 92.3627699,14.2576123 92.8661741,14.7559139 C93.3695774,15.2542155 93.5996872,15.9363486 93.4915322,16.6097131 L93.4915322,21.067954 L92.0160946,21.067954 L92.0160946,16.9510171 C92.0160946,15.8442874 91.494021,15.2938973 90.4028387,15.2938973 C89.9030386,15.2724536 89.4179968,15.4531438 89.0748749,15.7885965 C88.7317527,16.1240493 88.5647721,16.5808087 88.61771,17.0391266 L88.61771,21.0680305 L87.1422728,21.0680305 L87.1422895,14.1811876 Z M95.8425159,11.4927536 L97.3179527,11.4927536 L97.3179527,21.0680152 L95.8425159,21.0680152 L95.8425159,11.4927536 Z M99.368974,17.6216344 C99.240878,16.387141 99.8835332,15.1924656 101.027436,14.5386089 C102.171338,13.8847522 103.618731,13.8847522 104.762633,14.5386089 C105.906536,15.1924656 106.549191,16.387141 106.421095,17.6216344 C106.551562,18.8574177 105.909478,20.0543461 104.764588,20.7095715 C103.6197,21.3647969 102.170369,21.3647969 101.02548,20.7095715 C99.8805921,20.0543461 99.2385064,18.8574177 99.368974,17.6216344 Z M104.902673,17.6216344 C104.902673,16.1288196 104.174675,15.2558302 102.89706,15.2558302 C101.614563,15.2558302 100.893107,16.1288196 100.893107,17.6216497 C100.893107,19.1264246 101.614613,19.9926845 102.89706,19.9926845 C104.174692,19.9926692 104.90269,19.1204292 104.90269,17.6216344 L104.902673,17.6216344 Z M107.974366,19.1204292 C107.974366,17.8807629 108.976376,17.1660985 110.754995,17.0645301 L112.780083,16.956997 L112.780083,16.3625598 C112.780083,15.635186 112.258009,15.224462 111.249525,15.224462 C110.425879,15.224462 109.855159,15.503014 109.691389,15.9899182 L108.262972,15.9899182 C108.413758,14.8070085 109.621675,14.0482816 111.317613,14.0482816 C113.191915,14.0482816 114.249045,14.9078121 114.249045,16.3625598 L114.249045,21.0680458 L112.82873,21.0680458 L112.82873,20.1002175 L112.711995,20.1002175 C112.2296,20.8069999 111.371744,21.2200745 110.466406,21.181513 C109.831743,21.2423253 109.198771,21.0529822 108.723974,20.6602926 C108.249175,20.2676031 107.976866,19.7082186 107.974366,19.1204292 Z M112.780083,18.5319567 L112.780083,17.9561937 L110.954427,18.0637268 C109.924858,18.1271973 109.457905,18.4498119 109.457905,19.0569433 C109.457905,19.6767688 110.041591,20.0374657 110.844235,20.0374657 C111.319383,20.0817726 111.793708,19.9465497 112.158626,19.6627526 C112.523545,19.3789554 112.74781,18.9708848 112.780083,18.5319567 Z M116.18818,17.6216344 C116.18818,15.4455081 117.402589,14.0669405 119.291469,14.0669405 C120.245258,14.026457 121.138571,14.4972454 121.584077,15.2751773 L121.694336,15.2751773 L121.694336,11.4927536 L123.169772,11.4927536 L123.169772,21.0680152 L121.755948,21.0680152 L121.755948,19.9799444 L121.639215,19.9799444 C121.160033,20.751422 120.255714,21.2142524 119.291485,21.181513 C117.389622,21.1815895 116.18818,19.8029913 116.18818,17.6216344 Z M117.712314,17.6216344 C117.712314,19.0823468 118.45977,19.9613162 119.709841,19.9613162 C120.953387,19.9613162 121.721946,19.069668 121.721946,17.6276144 C121.721946,16.1922903 120.945319,15.2879325 119.709841,15.2879325 C118.467822,15.2879325 117.712264,16.1728666 117.712264,17.6216344 L117.712314,17.6216344 Z M129.274208,17.6216344 C129.146014,16.3872217 129.788567,15.1925766 130.932385,14.5387299 C132.076202,13.8848833 133.52352,13.8848833 134.667338,14.5387299 C135.811155,15.1925766 136.45371,16.3872217 136.325515,17.6216344 C136.456148,18.8573735 135.814181,20.0543357 134.669349,20.70959 C133.524517,21.3648442 132.075205,21.3648442 130.930373,20.70959 C129.785542,20.0543357 129.143574,18.8573735 129.274208,17.6216344 Z M134.807906,17.6216344 C134.807906,16.1288196 134.079909,15.2558302 132.802293,15.2558302 C131.519797,15.2558302 130.798341,16.1288196 130.798341,17.6216497 C130.798341,19.1264246 131.519847,19.9926845 132.802293,19.9926845 C134.079926,19.9926692 134.807906,19.1204292 134.807906,17.6216344 Z M138.305194,14.1811876 L139.72551,14.1811876 L139.72551,15.2752231 L139.835769,15.2752231 C140.219185,14.4697237 141.115116,13.9769917 142.066764,14.048251 C142.803622,13.9972172 143.525691,14.2576123 144.029096,14.7559139 C144.532499,15.2542155 144.762609,15.9363486 144.654454,16.6097131 L144.654454,21.067954 L143.179016,21.067954 L143.179016,16.9510171 C143.179016,15.8442874 142.656942,15.2938973 141.565759,15.2938973 C141.06596,15.2724536 140.580917,15.4531438 140.237795,15.7885965 C139.894674,16.1240493 139.727694,16.5808087 139.780631,17.0391266 L139.780631,21.0680305 L138.305194,21.0680305 L138.305194,14.1811876 Z M152.991511,12.4665772 L152.991511,14.2125559 L154.611259,14.2125559 L154.611259,15.3573833 L152.991511,15.3573833 L152.991511,18.8986337 C152.991511,19.6200275 153.314169,19.9359126 154.048642,19.9359126 C154.236677,19.9353583 154.424524,19.924885 154.611259,19.9045444 L154.611259,21.0366623 C154.346295,21.0803281 154.077839,21.1035589 153.808682,21.106113 C152.167865,21.106113 151.514447,20.5743969 151.514447,19.2466212 L151.514447,15.3573221 L150.327615,15.3573221 L150.327615,14.2124948 L151.514447,14.2124948 L151.514447,12.4665772 L152.991511,12.4665772 Z M156.626601,11.4927536 L158.089072,11.4927536 L158.089072,15.2879172 L158.205806,15.2879172 C158.607638,14.4753682 159.51925,13.9820083 160.485364,14.054231 C161.218038,14.0175056 161.930333,14.2836335 162.428234,14.7801273 C162.926135,15.276621 163.157786,15.951768 163.060086,16.6216731 L163.060086,21.0680305 L161.583171,21.0680305 L161.583171,16.9569664 C161.583171,15.856951 161.02698,15.2998467 159.984509,15.2998467 C159.4712,15.2610664 158.96548,15.4329684 158.602549,15.7695962 C158.239619,16.106224 158.056484,16.5732523 158.102105,17.0458254 L158.102105,21.0679999 L156.626668,21.0679999 L156.626601,11.4927536 Z M171.66312,19.2085388 C171.249391,20.5075914 169.884714,21.3469237 168.42364,21.2009519 C167.42675,21.2251934 166.468685,20.8445536 165.80364,20.1600255 C165.138594,19.4754973 164.833802,18.5562835 164.970134,17.6462733 C164.837423,16.7337339 165.141073,15.8130472 165.802415,15.122736 C166.463757,14.4324247 167.417716,14.0404154 168.417149,14.0482663 C170.497357,14.0482663 171.752294,15.3574444 171.752294,17.5200354 L171.752294,17.9942913 L166.473132,17.9942913 L166.473132,18.0704561 C166.426415,18.5814947 166.615884,19.0869775 166.994941,19.4625908 C167.373998,19.8382039 167.907473,20.0490953 168.464167,20.0433998 C169.186008,20.1232271 169.888672,19.7933912 170.242804,19.2084929 L171.66312,19.2085388 Z M166.473099,16.9890995 L170.249246,16.9890995 C170.286856,16.5217113 170.108452,16.0614261 169.757998,15.721673 C169.407546,15.3819198 168.917634,15.1942961 168.408996,15.2050384 C167.893468,15.199072 167.397172,15.385144 167.032688,15.7210455 C166.668205,16.0569471 166.466429,16.5142069 166.473132,16.9890995 L166.473099,16.9890995 Z" id="Download-on-the" fill="#FFFFFF" fill-rule="nonzero"></path>
                    <path d="M38.023296,30.2983547 C38.0584283,27.5434303 39.4880011,24.9987182 41.8111611,23.5557624 C40.3389264,21.4315074 37.9614316,20.1329691 35.3958881,20.0518735 C32.6967273,19.7656422 30.0800085,21.683632 28.7045654,21.683632 C27.3025044,21.683632 25.1847937,20.080292 22.9043689,20.1276941 C19.9039246,20.2256299 17.1745065,21.9073352 15.7147292,24.557523 C12.6060746,29.9950723 14.9248512,37.9864391 17.902682,42.3817436 C19.3925537,44.5339993 21.133786,46.9381241 23.4121533,46.8528687 C25.6416727,46.7594448 26.474355,45.4165484 29.1655754,45.4165484 C31.8318173,45.4165484 32.6130476,46.8528687 34.937643,46.7986624 C37.3300211,46.7594286 38.8373327,44.6368418 40.2749328,42.464206 C41.3454032,40.9306451 42.1691284,39.2357265 42.7155963,37.4422327 C39.8741776,36.2280823 38.0266124,33.415223 38.023296,30.2983547 Z M33.6325545,17.1612237 C34.9369785,15.5791926 35.5796186,13.5457596 35.4240011,11.4927536 C33.4311314,11.7042206 31.5902781,12.6664864 30.2682316,14.1878191 C28.9627714,15.6888184 28.3014283,17.6525273 28.4298658,19.6464306 C30.4494575,19.6674389 32.3670172,18.7514638 33.6325545,17.1612237 Z" id="Icon" fill="#FFFFFF" fill-rule="nonzero"></path>
                </g>
            </g>
        </g>
    </g>
</svg>