<?xml version="1.0" encoding="UTF-8"?>
<svg width="213px" height="61px" viewBox="0 0 213 61" version="1.1" xmlns="http://www.w3.org/2000/svg" xmlns:xlink="http://www.w3.org/1999/xlink">
    <!-- Generator: Sketch 52.6 (67491) - http://www.bohemiancoding.com/sketch -->
    <title>google-play-badge</title>
    <desc>Created with Sketch.</desc>
    <defs>
        <linearGradient x1="91.488428%" y1="4.9481245%" x2="-38.3517333%" y2="71.9074222%" id="linearGradient-1">
            <stop stop-color="#00A0FF" offset="0%"></stop>
            <stop stop-color="#00A1FF" offset="1%"></stop>
            <stop stop-color="#00BEFF" offset="26%"></stop>
            <stop stop-color="#00D2FF" offset="51%"></stop>
            <stop stop-color="#00DFFF" offset="76%"></stop>
            <stop stop-color="#00E3FF" offset="100%"></stop>
        </linearGradient>
        <linearGradient x1="107.684729%" y1="50%" x2="-130.640394%" y2="50%" id="linearGradient-2">
            <stop stop-color="#FFE000" offset="0%"></stop>
            <stop stop-color="#FFBD00" offset="41%"></stop>
            <stop stop-color="#FFA500" offset="78%"></stop>
            <stop stop-color="#FF9C00" offset="100%"></stop>
        </linearGradient>
        <linearGradient x1="86.219293%" y1="17.8768889%" x2="-50.1497903%" y2="194.702638%" id="linearGradient-3">
            <stop stop-color="#FF3A44" offset="0%"></stop>
            <stop stop-color="#C31162" offset="100%"></stop>
        </linearGradient>
        <linearGradient x1="-18.7537448%" y1="-54.0521474%" x2="42.1210306%" y2="24.9170664%" id="linearGradient-4">
            <stop stop-color="#32A071" offset="0%"></stop>
            <stop stop-color="#2DA771" offset="7%"></stop>
            <stop stop-color="#15CF74" offset="48%"></stop>
            <stop stop-color="#06E775" offset="80%"></stop>
            <stop stop-color="#00F076" offset="100%"></stop>
        </linearGradient>
    </defs>
    <g id="Page-1" stroke="none" stroke-width="1" fill="none" fill-rule="evenodd">
        <g id="Download" transform="translate(-1008.000000, -629.000000)">
            <g id="Group-2" transform="translate(796.000000, 629.000000)">
                <g id="google-play-badge" transform="translate(212.000000, 0.000000)">
                    <rect id="Background-Black" fill="#000000" x="0" y="0" width="212.456633" height="61" rx="8"></rect>
                    <path d="M107.235518,33.16875 C103.545736,33.1855759 100.567015,36.0947388 100.578577,39.6702377 C100.590138,43.2457366 103.587617,46.1367526 107.277436,46.1311703 C110.967253,46.1255881 113.955402,43.2255165 113.955443,39.65 C113.981367,37.91817 113.280667,36.2503324 112.013833,35.0284931 C110.746999,33.8066538 109.022571,33.1354984 107.235518,33.16875 Z M107.235518,43.5845 C105.57242,43.6972055 104.007236,42.8133281 103.288579,41.3556166 C102.569923,39.8979051 102.84386,38.1626412 103.97937,36.979783 C105.11488,35.7969247 106.881169,35.4068893 108.43344,35.9962267 C109.98571,36.585564 111.008463,38.0344903 111.012525,39.65 C111.063739,40.6605746 110.691531,41.6483489 109.980364,42.38917 C109.269197,43.129991 108.279376,43.5610399 107.235518,43.5845 Z M92.5838793,33.16875 C88.8920115,33.1771676 85.9053877,36.0826389 85.9111755,39.6601427 C85.9169632,43.2376466 88.9129734,46.1340294 92.60485,46.1312301 C96.2967267,46.1284308 99.2880561,43.2275082 99.2880667,39.65 C99.3139906,37.91817 98.6132907,36.2503324 97.3464572,35.0284931 C96.0796229,33.8066538 94.3551953,33.1354984 92.5681422,33.16875 L92.5838793,33.16875 Z M92.5838793,43.5845 C90.9199118,43.7035614 89.3501657,42.8240912 88.6264444,41.3672973 C87.902723,39.9105034 88.1723711,38.1729788 89.3062451,36.9868824 C90.4401195,35.800786 92.2073707,35.4075988 93.7616033,35.9956313 C95.3158359,36.5836638 96.340618,38.0331967 96.3451487,39.65 C96.3963628,40.6605746 96.0241541,41.6483489 95.312988,42.38917 C94.6018209,43.129991 93.6119992,43.5610399 92.5681422,43.5845 L92.5838793,43.5845 Z M75.1309603,35.1665 L75.1309603,37.9115 L81.9295725,37.9115 C81.822972,39.2044007 81.2683518,40.4243866 80.3558197,41.37325 C78.9803957,42.7308426 77.0769737,43.4619785 75.1152227,43.38625 C70.9432563,43.38625 67.5612092,40.1089743 67.5612092,36.06625 C67.5612092,32.0235257 70.9432563,28.74625 75.1152227,28.74625 C77.0317323,28.7159617 78.8824125,29.4234295 80.2613945,30.7135 L82.2600607,28.77675 C80.3792994,26.9312837 77.8074708,25.9025125 75.1309603,25.925 C71.320843,25.781313 67.7349414,27.6690994 65.7857863,30.844737 C63.8366313,34.0203745 63.8366313,37.9748755 65.7857863,41.150513 C67.7349414,44.3261506 71.320843,46.213937 75.1309603,46.07025 C77.8563305,46.1895878 80.5017707,45.1608563 82.3859609,43.249 C84.0347436,41.4936054 84.9150495,39.1860359 84.8410153,36.8135 C84.8460936,36.235507 84.7933891,35.658396 84.68364,35.09025 L75.1309603,35.1665 Z M146.437701,37.3015 C145.597442,34.9060454 143.31841,33.2618559 140.709241,33.16875 C138.969243,33.1654534 137.305442,33.8601965 136.112906,35.0880137 C134.92037,36.3158308 134.305476,37.9671978 134.41423,39.65 C134.37558,41.3721766 135.0613,43.0355432 136.313831,44.2579005 C137.566362,45.4802577 139.278005,46.1565021 141.055467,46.13125 C143.291547,46.1429299 145.384299,45.0659544 146.626552,43.26425 L144.34461,41.73925 C143.651759,42.8585119 142.402373,43.5420547 141.055467,43.53875 C139.660478,43.5902723 138.374801,42.8101047 137.813536,41.5715 L146.76819,37.98775 L146.437701,37.3015 Z M137.309935,39.467 C137.245493,38.5141255 137.57956,37.5762211 138.236823,36.8647265 C138.894086,36.1532318 139.819221,35.728038 140.803666,35.685 C141.841351,35.6187412 142.819748,36.1587909 143.290195,37.0575 L137.309935,39.467 Z M130.039197,45.75 L132.982114,45.75 L132.982114,26.6875 L130.039197,26.6875 L130.039197,45.75 Z M125.223513,34.6175 L125.11335,34.6175 C124.216252,33.6455821 122.933793,33.0907919 121.588144,33.0925 C118.015956,33.2603593 115.208681,36.1157814 115.208681,39.581375 C115.208681,43.0469686 118.015956,45.9023907 121.588144,46.07025 C122.938154,46.0922462 124.228926,45.5338599 125.11335,44.54525 L125.207776,44.54525 L125.207776,45.4755 C125.207776,47.96125 123.838611,49.288 121.635357,49.288 C120.134473,49.2539581 118.803747,48.344076 118.267526,46.98525 L115.702308,48.02225 C116.690124,50.3506367 119.037454,51.8650339 121.635357,51.85 C125.081875,51.85 127.930368,49.88275 127.930368,45.09425 L127.930368,33.55 L125.223513,33.55 L125.223513,34.6175 Z M121.855682,43.5845 C119.751397,43.4047936 118.137496,41.6969999 118.137496,39.65 C118.137496,37.6030001 119.751397,35.8952064 121.855682,35.7155 C122.872515,35.7660652 123.825211,36.2122995 124.497777,36.9530321 C125.170342,37.6937648 125.505802,38.6662482 125.428101,39.65 C125.514869,40.6382753 125.180483,41.6179075 124.502687,42.3611263 C123.824892,43.104345 122.862743,43.546396 121.839944,43.5845 L121.855682,43.5845 Z M160.223776,26.6875 L153.189101,26.6875 L153.189101,45.75 L156.132018,45.75 L156.132018,38.5215 L160.239514,38.5215 C162.525679,38.6806548 164.712078,37.5889761 165.905229,35.6925838 C167.098379,33.7961914 167.098379,31.4128086 165.905229,29.5164162 C164.712078,27.6200239 162.525679,26.5283452 160.239514,26.6875 L160.223776,26.6875 Z M160.223776,35.8375 L156.116281,35.8375 L156.116281,29.341 L160.286726,29.341 C162.151074,29.341 163.662426,30.8055326 163.662426,32.612125 C163.662426,34.4187174 162.151074,35.88325 160.286726,35.88325 L160.223776,35.8375 Z M178.369147,33.0925 C176.179604,32.9656794 174.121095,34.1098092 173.12855,36.00525 L175.740979,37.0575 C176.267251,36.117594 177.316502,35.5673548 178.416359,35.6545 C179.171018,35.5690918 179.92945,35.7810294 180.521298,36.2427081 C181.113147,36.7043866 181.488794,37.3771017 181.563864,38.10975 L181.563864,38.308 C180.618656,37.8230486 179.564557,37.5716159 178.495046,37.576 C175.678029,37.576 172.829537,39.101 172.829537,41.86125 C172.8857,43.0503059 173.435809,44.16679 174.35471,44.9566909 C175.27361,45.746592 176.483158,46.1427373 177.70817,46.055 C179.21776,46.1600467 180.666147,45.4582876 181.485177,44.225 L181.579602,44.225 L181.579602,45.75 L184.412357,45.75 L184.412357,38.41475 C184.412357,35.075 181.799928,33.13825 178.447834,33.13825 L178.369147,33.0925 Z M178.007183,43.53875 C177.047194,43.53875 175.709504,43.066 175.709504,41.92225 C175.709504,40.39725 177.377682,39.894 178.85701,39.894 C179.791884,39.8716464 180.715817,40.0928408 181.532389,40.5345 C181.328897,42.2416079 179.858741,43.5426243 178.085871,43.5845 L178.007183,43.53875 Z M194.736176,33.55 L191.368345,41.8155 L191.273919,41.8155 L187.780189,33.55 L184.632682,33.55 L189.873279,45.1095 L186.883149,51.52975 L189.951967,51.52975 L198.009582,33.55 L194.736176,33.55 Z M168.28139,45.75 L171.224308,45.75 L171.224308,26.6875 L168.28139,26.6875 L168.28139,45.75 Z" id="Google-Play" fill="#FFFFFF" fill-rule="nonzero"></path>
                    <path d="M74.6273594,15.616 C74.6814234,16.7463774 74.2548012,17.8487935 73.4470448,18.666 C72.5444184,19.5745999 71.2854698,20.0681243 69.9847886,20.02325 C67.9898055,20.0081201 66.1985725,18.8356047 65.4393054,17.0478419 C64.6800383,15.260079 65.1007026,13.2054667 66.5067948,11.834 C67.4204102,10.9301721 68.6794847,10.433311 69.9847886,10.4615 C70.6501045,10.4593519 71.3088433,10.5890942 71.9205045,10.84275 C72.4899741,11.0653292 72.9969264,11.4154738 73.3998322,11.8645 L72.5657432,12.67275 C71.9289191,11.9387316 70.9729241,11.537677 69.9847886,11.59 C68.9915135,11.5852784 68.0391254,11.9729087 67.3472355,12.6635072 C66.6553455,13.3541057 66.2836812,14.2880565 66.3179444,15.25 C66.2968592,16.7036143 67.1803241,18.0267803 68.5572897,18.6038689 C69.9342554,19.1809576 71.5342939,18.8986321 72.6129558,17.88825 C73.0972145,17.3797184 73.3765139,16.7193394 73.3998322,16.02775 L69.9847886,16.02775 L69.9847886,14.92975 L74.5644093,14.92975 C74.6063862,15.1562341 74.6274529,15.3858922 74.6273594,15.616 Z M81.8351474,11.8035 L77.5860148,11.8035 L77.5860148,14.701 L81.4574467,14.701 L81.4574467,15.799 L77.5860148,15.799 L77.5860148,18.6965 L81.8351474,18.6965 L81.8351474,19.825 L76.3270125,19.825 L76.3270125,10.675 L81.8351474,10.675 L81.8351474,11.8035 Z M86.9970567,19.825 L85.785267,19.825 L85.785267,11.8035 L83.1413623,11.8035 L83.1413623,10.675 L89.7039116,10.675 L89.7039116,11.8035 L86.9970567,11.8035 L86.9970567,19.825 Z M94.3307447,19.825 L94.3307447,10.675 L95.5425345,10.675 L95.5425345,19.825 L94.3307447,19.825 Z M100.924769,19.825 L99.7129795,19.825 L99.7129795,11.8035 L97.0690744,11.8035 L97.0690744,10.675 L103.552936,10.675 L103.552936,11.8035 L100.924769,11.8035 L100.924769,19.825 Z M115.843946,18.6355 C113.928673,20.4810975 110.834707,20.4810975 108.919433,18.6355 C107.062829,16.7311316 107.062829,13.7536184 108.919433,11.84925 C109.835355,10.9552137 111.081638,10.4524003 112.38169,10.4524003 C113.681742,10.4524003 114.928025,10.9552137 115.843946,11.84925 C117.708474,13.7505587 117.708474,16.7341913 115.843946,18.6355 Z M109.816473,17.873 C111.234934,19.2417867 113.528446,19.2417867 114.946907,17.873 C116.33999,16.384861 116.33999,14.115139 114.946907,12.627 C113.528446,11.2582133 111.234934,11.2582133 109.816473,12.627 C108.423389,14.115139 108.423389,16.384861 109.816473,17.873 Z M118.944239,19.825 L118.944239,10.675 L120.423567,10.675 L125.018926,17.79675 L125.018926,10.675 L126.230715,10.675 L126.230715,19.825 L124.971712,19.825 L120.171766,12.36775 L120.171766,19.825 L118.944239,19.825 Z" id="GET-IT-ON" stroke="#FFFFFF" stroke-width="0.2" fill="#FFFFFF" fill-rule="nonzero"></path>
                    <g id="Icon" transform="translate(15.051276, 10.675000)">
                        <path d="M1.37870408,0.8235 C0.86576288,1.41994021 0.606862746,2.18348726 0.65477778,2.9585 L0.65477778,36.6915 C0.606862746,37.4665128 0.86576288,38.2300598 1.37870408,38.8265 L1.48886678,38.93325 L20.9876644,20.05375 L20.9876644,19.6115 L1.48886678,0.71675 L1.37870408,0.8235 Z" id="Shape" fill="url(#linearGradient-1)"></path>
                        <path d="M27.440051,26.352 L20.9876644,20.05375 L20.9876644,19.6115 L27.440051,13.298 L27.5816888,13.37425 L35.3088152,17.629 C37.5120692,18.83375 37.5120692,20.81625 35.3088152,22.03625 L27.6131638,26.27575 L27.440051,26.352 Z" id="Shape" fill="url(#linearGradient-2)"></path>
                        <path d="M27.6289014,26.2605 L20.9876644,19.825 L1.37870408,38.8265 C2.30520027,39.6157216 3.68020581,39.6541566 4.65210998,38.918 L27.6446389,26.2605" id="Shape" fill="url(#linearGradient-3)"></path>
                        <path d="M27.6289014,13.3895 L4.63637245,0.732 C3.66446828,-0.00415655387 2.28946275,0.0342783393 1.36296655,0.8235 L20.9876644,19.825 L27.6289014,13.3895 Z" id="Shape" fill="url(#linearGradient-4)"></path>
                        <path d="M27.440051,26.12325 L4.63637245,38.7045 C3.70319767,39.3805881 2.42204157,39.3805881 1.48886678,38.7045 L1.37870408,38.81125 L1.48886678,38.918 C2.42028576,39.5991859 3.70495346,39.5991859 4.63637245,38.918 L27.6289014,26.2605 L27.440051,26.12325 Z" id="Shape" fill="#000000" opacity="0.2"></path>
                        <path d="M1.37870408,38.613 C0.86576288,38.0165598 0.606862746,37.2530128 0.65477778,36.478 L0.65477778,36.70675 C0.606862746,37.4817628 0.86576288,38.2453098 1.37870408,38.84175 L1.48886678,38.735 L1.37870408,38.613 Z M35.3088152,21.8075 L27.440051,26.12325 L27.5816888,26.2605 L35.3088152,22.021 C36.2012434,21.6147602 36.80147,20.7772095 36.882568,19.825 C36.7032066,20.6863779 36.1219826,21.4185618 35.3088152,21.8075 Z" id="Shape" fill="#000000" fill-rule="nonzero" opacity="0.12"></path>
                        <path d="M4.63637245,0.9455 L35.3088152,17.8425 C36.1219826,18.2314382 36.7032066,18.9636221 36.882568,19.825 C36.80147,18.8727905 36.2012434,18.0352398 35.3088152,17.629 L4.63637245,0.732 C2.43311848,-0.47275 0.639040248,0.53375 0.639040248,2.97375 L0.639040248,3.2025 C0.686252834,0.74725 2.44885601,-0.25925 4.63637245,0.9455 Z" id="Shape" fill="#FFFFFF" opacity="0.25"></path>
                    </g>
                </g>
            </g>
        </g>
    </g>
</svg>