<?xml version="1.0" encoding="UTF-8"?>
<svg width="1024px" height="300px" viewBox="0 0 1024 300" version="1.1" xmlns="http://www.w3.org/2000/svg" xmlns:xlink="http://www.w3.org/1999/xlink">
    <!-- Generator: Sketch 51.3 (57544) - http://www.bohemiancoding.com/sketch -->
    <title>header-logo-white</title>
    <desc>Created with Sketch.</desc>
    <defs></defs>
    <g id="header-logo-white" stroke="none" stroke-width="1" fill="none" fill-rule="evenodd">
        <g id="Group" transform="translate(10.000000, 50.000000)" fill="#FFFFFF">
            <path d="M145,201 L105.506958,201 L53.0417495,117.154286 L33.7276342,117.154286 L31.9980119,201 L0,116.6821 L0,83.8457143 L31.9980119,83.8457143 L0,33.5957143 L0,0 L67.166998,0 C67.166998,0 134.622266,0 134.622266,58.5771429 C134.622266,94.1828571 109.831014,108.252857 90.2286282,113.708571 L145,201 Z M40.0695825,33.5957143 L71.4910537,83.5585714 C80.4274354,82.6971429 100.894632,78.39 100.894632,58.5771429 C100.894632,33.5957143 67.166998,33.5957143 67.166998,33.5957143 L40.0695825,33.5957143 Z" id="R"></path>
            <path d="M269.256724,92.6498625 C269.256724,99.5392514 267.658533,105.076842 264.462103,109.2628 C261.265673,113.448757 256.643877,116.021339 250.596577,116.980621 L267.572127,145.497316 C268.090467,146.36939 268.349633,147.328658 268.349633,148.375147 C268.349633,150.293711 267.399358,151.819819 265.498778,152.953516 C264.375708,153.651175 263.382237,154 262.518337,154 C260.790537,154 259.321929,153.040732 258.112469,151.122168 L238.415648,118.027105 L238.026895,117.373052 L219.885086,117.373052 L219.885086,147.197853 C219.885086,148.942002 219.409948,150.293697 218.459658,151.252979 C217.509368,152.212261 216.170343,152.691895 214.442543,152.691895 C212.714743,152.691895 211.375718,152.212261 210.425428,151.252979 C209.475138,150.293697 209,148.942002 209,147.197853 L209,69.4963992 C209,67.7522501 209.475138,66.4005548 210.425428,65.4412728 C211.375718,64.4819908 212.714743,64.002357 214.442543,64.002357 L244.765281,64.002357 C252.713161,64.002357 258.781968,66.117106 262.971883,70.3466676 C267.161798,74.5762291 269.256724,80.7024609 269.256724,88.7255467 L269.256724,92.6498625 Z M258.371638,88.7255467 C258.371638,83.8419293 257.334974,80.3318819 255.261614,78.1952992 C253.188254,76.0587166 249.689511,74.9904413 244.765281,74.9904413 L219.885086,74.9904413 L219.885086,106.384968 L244.765281,106.384968 C249.689511,106.384968 253.188254,105.338494 255.261614,103.245515 C257.334974,101.152536 258.371638,97.6206874 258.371638,92.6498625 L258.371638,88.7255467 Z M315.90709,152.691895 C305.97224,152.691895 298.650798,150.315527 293.942543,145.562721 C289.234288,140.809915 286.880196,133.419194 286.880196,123.390337 L286.880196,93.1731047 C286.880196,83.1442474 289.255885,75.7535265 294.007335,71.0007202 C298.758785,66.247914 306.05863,63.9151495 315.90709,64.002357 L331.457213,64.002357 C341.392063,64.002357 348.713505,66.3787245 353.42176,71.1315307 C358.130015,75.884337 360.484108,83.2750579 360.484108,93.3039152 L360.484108,123.390337 C360.484108,133.419194 358.130015,140.809915 353.42176,145.562721 C348.713505,150.315527 341.392063,152.691895 331.457213,152.691895 L315.90709,152.691895 Z M331.457213,141.70381 C336.208663,141.70381 339.858585,141.13697 342.40709,140.003274 C344.955595,138.869577 346.791355,137.016446 347.914425,134.443826 C349.037495,131.871206 349.599022,128.186747 349.599022,123.390337 L349.599022,93.3039152 C349.599022,88.5947126 349.037495,84.9320545 347.914425,82.3158309 C346.791355,79.6996072 344.933998,77.8246751 342.342298,76.6909782 C339.750598,75.5572813 336.122273,74.9904413 331.457213,74.9904413 L315.90709,74.9904413 C311.24203,74.9032339 307.613705,75.4264707 305.022005,76.5601676 C302.430305,77.6938646 300.572948,79.5687967 299.449878,82.1850203 C298.326808,84.801244 297.765281,88.4639021 297.765281,93.1731047 L297.765281,123.390337 C297.765281,128.186747 298.326808,131.871206 299.449878,134.443826 C300.572948,137.016446 302.408708,138.869577 304.957213,140.003274 C307.505718,141.13697 311.15564,141.70381 315.90709,141.70381 L331.457213,141.70381 Z M410.244499,152.691895 C400.309649,152.691895 392.988206,150.315527 388.279951,145.562721 C383.571696,140.809915 381.217604,133.419194 381.217604,123.390337 L381.217604,93.3039152 C381.217604,83.2750579 383.571696,75.8625355 388.279951,71.0661255 C392.988206,66.2697155 400.266454,63.9151495 410.114914,64.002357 L425.794621,64.002357 C433.915281,64.002357 440.113671,65.7028768 444.389976,69.1039676 C448.666281,72.5050583 451.149956,77.8246332 451.841076,85.0628519 C452.100246,86.8942085 451.754691,88.2895068 450.804401,89.2487888 C449.854111,90.2080708 448.471892,90.6877046 446.657702,90.6877046 C444.929902,90.6877046 443.612474,90.2298724 442.705379,89.3141941 C441.798284,88.3985158 441.21516,87.025019 440.95599,85.1936625 C440.52404,81.269327 439.185015,78.587738 436.938875,77.148815 C434.692735,75.709892 430.978021,74.9904413 425.794621,74.9904413 L410.114914,74.9904413 C405.449854,74.9032339 401.821529,75.4264707 399.229829,76.5601676 C396.638129,77.6938646 394.802369,79.5687967 393.722494,82.1850203 C392.642619,84.801244 392.102689,88.5075052 392.102689,93.3039152 L392.102689,123.390337 C392.102689,128.186747 392.664216,131.871206 393.787286,134.443826 C394.910356,137.016446 396.746116,138.869577 399.294621,140.003274 C401.843126,141.13697 405.493049,141.70381 410.244499,141.70381 L425.794621,141.70381 C430.978021,141.70381 434.692735,140.98436 436.938875,139.545437 C439.185015,138.106514 440.52404,135.424925 440.95599,131.500589 C441.21516,129.669233 441.798284,128.295736 442.705379,127.380058 C443.612474,126.464379 444.929902,126.006547 446.657702,126.006547 C448.471892,126.006547 449.854111,126.486181 450.804401,127.445463 C451.754691,128.404745 452.100246,129.800043 451.841076,131.6314 C451.149956,138.869618 448.666281,144.189193 444.389976,147.590284 C440.113671,150.991375 433.915281,152.691895 425.794621,152.691895 L410.244499,152.691895 Z M531.146699,143.142726 C532.096989,144.363631 532.572127,145.584517 532.572127,146.805421 C532.572127,148.375155 531.837823,149.72685 530.369193,150.860547 C529.332513,151.819829 528.123071,152.299463 526.740831,152.299463 C525.185811,152.299463 523.846786,151.558211 522.723716,150.075684 L490.97555,110.440094 L485.403423,116.326568 L485.403423,147.197853 C485.403423,148.942002 484.928285,150.293697 483.977995,151.252979 C483.027705,152.212261 481.68868,152.691895 479.96088,152.691895 C478.23308,152.691895 476.894055,152.212261 475.943765,151.252979 C474.993475,150.293697 474.518337,148.942002 474.518337,147.197853 L474.518337,69.4963992 C474.518337,67.7522501 474.993475,66.4005548 475.943765,65.4412728 C476.894055,64.4819908 478.23308,64.002357 479.96088,64.002357 C481.68868,64.002357 483.027705,64.4819908 483.977995,65.4412728 C484.928285,66.4005548 485.403423,67.7522501 485.403423,69.4963992 L485.403423,100.629305 L518.447433,66.0953254 C519.743283,64.7872136 521.039113,64.1331675 522.334963,64.1331675 C523.630813,64.1331675 524.88345,64.7436105 526.09291,65.9645149 C527.38876,67.2726267 528.036675,68.5807189 528.036675,69.8888307 C528.036675,71.1969426 527.431954,72.4614317 526.222494,73.682336 L498.750611,102.460652 L531.146699,143.142726 Z M572.484108,152.691895 C565.054568,152.691895 559.288122,151.187589 555.184597,148.178932 C551.081072,145.170274 548.511008,140.526547 547.474328,134.24761 C547.301548,132.416254 547.690297,130.999154 548.640587,129.996268 C549.590877,128.993382 550.973096,128.491947 552.787286,128.491947 C554.515086,128.491947 555.810917,128.906176 556.674817,129.734647 C557.538717,130.563118 558.143438,131.936615 558.488998,133.855179 C559.093728,136.820232 560.45435,138.869577 562.570905,140.003274 C564.68746,141.13697 567.991828,141.70381 572.484108,141.70381 L591.144254,141.70381 C594.945414,141.70381 597.861033,141.26778 599.891198,140.395705 C601.921363,139.523631 603.368374,138.062928 604.232274,136.013552 C605.096174,133.964177 605.528117,131.064573 605.528117,127.314652 C605.528117,121.733375 604.491453,117.896305 602.418093,115.803326 C600.344733,113.710347 596.586824,112.663873 591.144254,112.663873 L575.075795,112.663873 C566.955135,112.663873 560.907925,110.658132 556.933985,106.646589 C552.960045,102.635046 550.973105,96.4870128 550.973105,88.2023046 C550.973105,80.0048039 552.938448,73.9221752 556.869193,69.954236 C560.799938,65.9862968 566.82555,64.002357 574.94621,64.002357 L590.366748,64.002357 C604.016368,64.002357 611.87774,69.7579627 613.9511,81.2693466 C614.21027,83.1007032 613.864715,84.5178031 612.914425,85.5206888 C611.964135,86.5235745 610.538722,87.0250099 608.638142,87.0250099 C606.910342,87.0250099 605.614511,86.5889791 604.750611,85.7169046 C603.886711,84.84483 603.325185,83.4931348 603.066015,81.6617782 C602.374895,79.132762 601.079064,77.3886391 599.178484,76.4293571 C597.277904,75.4700751 594.340688,74.9904413 590.366748,74.9904413 L574.94621,74.9904413 C571.40422,74.9904413 568.704573,75.382869 566.847188,76.1677361 C564.989803,76.9526032 563.693973,78.2824969 562.959658,80.1574572 C562.225343,82.0324174 561.858191,84.7140064 561.858191,88.2023046 C561.858191,91.7778102 562.24694,94.5030023 563.02445,96.3779626 C563.80196,98.2529229 565.119388,99.6046181 566.976773,100.433089 C568.834158,101.26156 571.533805,101.675789 575.075795,101.675789 L591.144254,101.675789 C599.696864,101.675789 606.046434,103.768736 610.193154,107.954694 C614.339874,112.140652 616.413203,118.593907 616.413203,127.314652 C616.413203,135.94819 614.339874,142.336041 610.193154,146.478395 C606.046434,150.620749 599.696864,152.691895 591.144254,152.691895 L572.484108,152.691895 Z M660.08313,152.691895 C656.45475,152.691895 654.640587,150.860566 654.640587,147.197853 L654.640587,75.1212518 L629.501222,75.1212518 C625.872842,75.1212518 624.05868,73.2899228 624.05868,69.6272097 C624.05868,65.9644966 625.872842,64.1331675 629.501222,64.1331675 L690.665037,64.1331675 C694.293417,64.1331675 696.107579,65.9644966 696.107579,69.6272097 C696.107579,73.2899228 694.293417,75.1212518 690.665037,75.1212518 L665.525672,75.1212518 L665.525672,147.197853 C665.525672,148.942002 665.050534,150.293697 664.100244,151.252979 C663.149954,152.212261 661.81093,152.691895 660.08313,152.691895 Z M769.97066,144.974074 C770.31622,145.758941 770.488998,146.631002 770.488998,147.590284 C770.488998,149.683263 769.32275,151.209371 766.99022,152.168653 C766.21271,152.517482 765.348823,152.691895 764.398533,152.691895 C762.325173,152.691895 760.813371,151.514612 759.863081,149.16001 L752.865526,132.023831 L712.564792,132.023831 L705.826406,149.16001 C704.876116,151.514612 703.364314,152.691895 701.290954,152.691895 C700.427054,152.691895 699.606361,152.517482 698.828851,152.168653 C696.409931,151.296578 695.200489,149.770471 695.200489,147.590284 C695.200489,146.631002 695.373266,145.758941 695.718826,144.974074 L726.559902,68.3191044 C727.855752,65.4412584 729.885887,64.002357 732.650367,64.002357 L732.909535,64.002357 C735.760405,64.1767719 737.660957,65.6156733 738.611247,68.3191044 L769.97066,144.974074 Z M716.841076,121.035747 L748.459658,121.035747 L732.261614,81.4001572 L716.841076,121.035747 Z M844.481663,102.329842 C851.306473,106.341384 854.718826,113.448685 854.718826,123.651958 L854.718826,128.099516 C854.718826,136.122601 852.6239,142.227032 848.433985,146.412989 C844.24407,150.598947 838.175264,152.691895 830.227384,152.691895 L794.721271,152.691895 C792.993471,152.691895 791.654446,152.212261 790.704156,151.252979 C789.753866,150.293697 789.278729,148.942002 789.278729,147.197853 L789.278729,69.4963992 C789.278729,67.7522501 789.753866,66.4005548 790.704156,65.4412728 C791.654446,64.4819908 792.993471,64.002357 794.721271,64.002357 L828.542787,64.002357 C835.367597,64.002357 840.637308,65.8336861 844.352078,69.4963992 C848.066848,73.1591122 849.924205,78.391481 849.924205,85.1936625 L849.924205,88.7255467 C849.924205,91.5161853 849.449068,94.0887666 848.498778,96.4433678 C847.548488,98.7979691 846.209463,100.760107 844.481663,102.329842 Z M800.163814,99.1903889 L832.559902,99.1903889 C834.806042,98.9287666 836.447428,97.8604913 837.484108,95.985531 C838.520788,94.1105707 839.03912,91.6906002 839.03912,88.7255467 L839.03912,85.1936625 C839.03912,81.4437419 838.261621,78.805756 836.706601,77.2796255 C835.151581,75.7534951 832.430337,74.9904413 828.542787,74.9904413 L800.163814,74.9904413 L800.163814,99.1903889 Z M843.833741,123.651958 C843.833741,118.76834 842.797076,115.301896 840.723716,113.252521 C838.650356,111.203145 835.151614,110.178473 830.227384,110.178473 L800.163814,110.178473 L800.163814,141.70381 L830.227384,141.70381 C835.065224,141.70381 838.542369,140.657337 840.658924,138.564358 C842.775479,136.471379 843.833741,132.983133 843.833741,128.099516 L843.833741,123.651958 Z M881.93154,152.691895 C878.30316,152.691895 876.488998,150.860566 876.488998,147.197853 L876.488998,69.4963992 C876.488998,65.8336861 878.30316,64.002357 881.93154,64.002357 C885.55992,64.002357 887.374083,65.8336861 887.374083,69.4963992 L887.374083,141.70381 L923.268949,141.70381 C926.897329,141.70381 928.711491,143.535139 928.711491,147.197853 C928.711491,150.860566 926.897329,152.691895 923.268949,152.691895 L881.93154,152.691895 Z M998.557457,141.70381 C1000.28526,141.70381 1001.62428,142.183444 1002.57457,143.142726 C1003.52486,144.102008 1004,145.453703 1004,147.197853 C1004,148.942002 1003.52486,150.293697 1002.57457,151.252979 C1001.62428,152.212261 1000.28526,152.691895 998.557457,152.691895 L952.036675,152.691895 C950.308875,152.691895 948.96985,152.212261 948.01956,151.252979 C947.06927,150.293697 946.594132,148.942002 946.594132,147.197853 L946.594132,69.4963992 C946.594132,67.7522501 947.06927,66.4005548 948.01956,65.4412728 C948.96985,64.4819908 950.308875,64.002357 952.036675,64.002357 L998.557457,64.002357 C1000.28526,64.002357 1001.62428,64.4819908 1002.57457,65.4412728 C1003.52486,66.4005548 1004,67.7522501 1004,69.4963992 C1004,71.2405482 1003.52486,72.5922435 1002.57457,73.5515255 C1001.62428,74.5108075 1000.28526,74.9904413 998.557457,74.9904413 L957.479218,74.9904413 L957.479218,102.460652 L983.266504,102.460652 C984.994304,102.460652 986.333329,102.940286 987.283619,103.899568 C988.233909,104.85885 988.709046,106.210545 988.709046,107.954694 C988.709046,109.698843 988.233909,111.050539 987.283619,112.009821 C986.333329,112.969103 984.994304,113.448736 983.266504,113.448736 L957.479218,113.448736 L957.479218,141.70381 L998.557457,141.70381 Z" id="Rockstable"></path>
        </g>
    </g>
</svg>