<?xml version="1.0" encoding="UTF-8"?>
<svg width="1024px" height="990px" viewBox="0 0 1024 990" version="1.1" xmlns="http://www.w3.org/2000/svg" xmlns:xlink="http://www.w3.org/1999/xlink">
    <!-- Generator: Sketch 51.3 (57544) - http://www.bohemiancoding.com/sketch -->
    <title>landing-image</title>
    <desc>Created with Sketch.</desc>
    <defs>
        <polygon id="path-1" points="0.00019402561 0.170298688 803 0.170298688 803 975.972154 0.00019402561 975.972154"></polygon>
        <polygon id="path-3" points="259.208318 164.235812 0.562952839 164.235812 31.3320429 0.118935644 289.981987 0.118935644"></polygon>
        <linearGradient x1="52.7366886%" y1="24.2543463%" x2="37.6110021%" y2="166.526542%" id="linearGradient-5">
            <stop stop-color="#FFFFFF" offset="0%"></stop>
            <stop stop-color="#231F1F" offset="100%"></stop>
        </linearGradient>
        <path d="M101.930435,50.6730908 C96.7071662,78.548115 69.9636617,101.144022 42.1901522,101.144022 C14.4166428,101.144022 -3.86708832,78.548115 1.35160308,50.6730908 C6.57029449,22.7980666 33.3183768,0.202159398 61.0918863,0.202159398" id="path-6"></path>
        <path d="M101.930435,50.6730908 C96.7071662,78.548115 69.9636617,101.144022 42.1901522,101.144022 C14.4166428,101.144022 -3.86708832,78.548115 1.35160308,50.6730908 C6.57029449,22.7980666 33.3183768,0.202159398 61.0918863,0.202159398" id="path-8"></path>
        <polygon id="path-10" points="0.0858415256 0.421456952 98.8152429 0.421456952 98.8152429 51.1487632 0.0858415256 51.1487632"></polygon>
    </defs>
    <g id="landing-image" stroke="none" stroke-width="1" fill="none" fill-rule="evenodd">
        <g id="Image" transform="translate(111.000000, -49.000000)">
            <g id="Group-7">
                <g id="Group-3">
                    <mask id="mask-2" fill="white">
                        <use xlink:href="#path-1"></use>
                    </mask>
                    <g id="Clip-2"></g>
                    <path d="M138.225142,741.293134 C236.964332,836.756896 410.269429,903.050583 505.831376,841.984623 C575.645604,797.369476 558.248784,713.981727 664.218328,629.936513 C733.09995,575.306592 767.074458,589.418966 789.513732,550.564625 C843.097783,457.780472 731.603525,234.822015 550.745385,151.352527 C399.588788,81.5867196 154.448226,88.2466515 46.0283758,262.705594 C-55.7533075,426.481635 27.5181021,634.26156 138.225142,741.293134 Z" id="Fill-1" fill="#1A237E" mask="url(#mask-2)"></path>
                </g>
                <g id="Group-6" transform="translate(283.415885, 286.107367)">
                    <mask id="mask-4" fill="white">
                        <use xlink:href="#path-3"></use>
                    </mask>
                    <g id="Clip-5"></g>
                    <polygon id="Fill-4" fill="url(#linearGradient-5)" mask="url(#mask-4)" points="259.208318 164.235812 0.562952839 164.235812 31.3320429 0.118935644 289.981987 0.118935644"></polygon>
                </g>
            </g>
            <polygon id="Fill-8" fill="#9A9FB3" points="457.622342 328 457 329 535.377658 329 536 328"></polygon>
            <polygon id="Fill-9" fill="#9A9FB3" points="455.626984 341 455 342 533.373016 342 534 341"></polygon>
            <polygon id="Fill-10" fill="#9A9FB3" points="455.626984 356 455 357 533.373016 357 534 356"></polygon>
            <polygon id="Fill-11" fill="#9A9FB3" points="451.626984 368 451 369 529.373016 369 530 368"></polygon>
            <polygon id="Fill-12" fill="#9A9FB3" points="447.622342 381 447 382 525.377658 382 526 381"></polygon>
            <polygon id="Fill-13" fill="#9A9FB3" points="493.653792 410 493 411 520.341292 411 521 410"></polygon>
            <g id="Group-61" transform="translate(152.000000, 195.000000)">
                <path d="M177.683403,100.171819 C177.303446,102.193413 175.362459,103.833661 173.348227,103.833661 C171.329418,103.833661 170.001856,102.193413 170.381813,100.171819 C170.761771,98.1502253 172.702758,96.5099775 174.721567,96.5099775 C176.735799,96.5099775 178.058783,98.1502253 177.683403,100.171819" id="Fill-14" fill="#FF8888"></path>
                <path d="M193.982658,100.171819 C193.607279,102.193413 191.661714,103.833661 189.65206,103.833661 C187.633251,103.833661 186.305689,102.193413 186.685646,100.171819 C187.061026,98.1502253 189.00659,96.5099775 191.020822,96.5099775 C193.035054,96.5099775 194.362616,98.1502253 193.982658,100.171819" id="Fill-16" fill="#FF8888"></path>
                <path d="M210.286491,100.171819 C209.906534,102.193413 207.965547,103.833661 205.951315,103.833661 C203.932506,103.833661 202.604944,102.193413 202.984901,100.171819 C203.364859,98.1502253 205.305845,96.5099775 207.324655,96.5099775 C209.338887,96.5099775 210.666449,98.1502253 210.286491,100.171819" id="Fill-18" fill="#FF8888"></path>
                <g id="Group-29" transform="translate(183.111979, 119.457826)">
                    <path d="M101.930435,50.6730908 C96.7071662,78.548115 69.9636617,101.144022 42.1901522,101.144022 C14.4166428,101.144022 -3.86708832,78.548115 1.35160308,50.6730908 C6.57029449,22.7980666 33.3183768,0.202159398 61.0918863,0.202159398 C88.8653957,0.202159398 107.149127,22.7980666 101.930435,50.6730908" id="Fill-20" fill="#4D70FF"></path>
                    <g id="Group-28">
                        <g id="Group-24">
                            <mask id="mask-7" fill="white">
                                <use xlink:href="#path-6"></use>
                            </mask>
                            <g id="Clip-23"></g>
                            <path d="M70.9410219,39.269463 C69.1602579,48.7847383 60.0275479,56.4989571 50.551503,56.4989571 C41.0708803,56.4989571 34.8267618,48.7847383 36.6075258,39.269463 C38.3928676,29.7541877 47.5209997,22.0399689 57.0016225,22.0399689 C66.4822452,22.0399689 72.7263637,29.7541877 70.9410219,39.269463" id="Fill-22" fill="#FFFFFF" mask="url(#mask-7)"></path>
                        </g>
                        <g id="Group-27">
                            <mask id="mask-9" fill="white">
                                <use xlink:href="#path-8"></use>
                            </mask>
                            <g id="Clip-26"></g>
                            <path d="M82.0009854,101.145401 C77.8672325,123.212937 56.6949099,141.104043 34.707739,141.104043 C12.7205681,141.104043 -1.75443387,123.212937 2.37474127,101.145401 C6.51307199,79.0778645 27.6853946,61.1913524 49.6725655,61.1913524 C71.6551586,61.1913524 86.1301605,79.0778645 82.0009854,101.145401" id="Fill-25" fill="#FFFFFF" mask="url(#mask-9)"></path>
                        </g>
                    </g>
                </g>
                <path d="M109.42292,769.800013 L106.392417,820.532833 L196.868045,820.532833 C196.868045,820.532833 159.966404,795.841819 143.458859,787.723282 L141.600272,769.800013 L109.42292,769.800013 Z" id="Fill-30" fill="#FF8888"></path>
                <path d="M137.390528,366.401043 L143.456112,783.391557 L107.735543,783.391557 C107.735543,783.391557 68.2886448,620.042169 87.6802034,572.355524 L53.2734626,366.401043 L137.390528,366.401043 Z" id="Fill-32" fill="#2D24A3"></path>
                <g id="Group-38" transform="translate(0.000000, 775.866954)">
                    <mask id="mask-11" fill="white">
                        <use xlink:href="#path-10"></use>
                    </mask>
                    <g id="Clip-37"></g>
                    <path d="M13.9016404,0.421456952 L0.0858415256,51.1496821 L98.8152429,51.1496821 C98.8152429,51.1496821 57.033667,26.463263 40.5215443,18.3447254 L43.5566254,0.421456952 L13.9016404,0.421456952 Z" id="Fill-36" fill="#FF8888" mask="url(#mask-11)"></path>
                </g>
                <path d="M139.925256,361.326383 L104.744867,570.327038 L45.6958311,783.38926 L10.2270407,783.38926 C10.2270407,783.38926 21.5982946,578.877462 58.2023793,557.568024 L29.2935755,361.326383 L139.925256,361.326383 Z" id="Fill-39" fill="#2D24A3"></path>
                <path d="M196.870792,216.91979 C196.870792,216.91979 218.770985,181.293791 253.141103,173.234982 L239.664062,189.527192 C239.664062,189.527192 246.068403,206.435069 237.979431,214.893602 C229.895038,223.342946 216.752175,224.022936 216.752175,224.022936 L207.65151,234.167663 L196.870792,216.91979 Z" id="Fill-43" fill="#FFADAD"></path>
                <path d="M109.937007,187.835945 L139.926171,249.384292 L198.892806,209.480784 L213.720299,232.141015 C213.720299,232.141015 162.4993,328.860503 139.926171,321.757357 C117.348464,314.658805 97.8058381,263.590584 97.8058381,263.590584 L109.937007,187.835945 Z" id="Fill-45" fill="#FFFFFF"></path>
                <path d="M132.848435,42.2444223 C132.848435,42.2444223 136.368763,73.7077758 139.925713,81.3025368 L130.069711,81.3025368 C130.069711,81.3025368 130.829626,111.48861 124.759464,115.292883 C120.41971,118.01744 107.73005,115.292883 104.745324,118.844456 C101.765177,122.396029 97.4666232,147.505145 97.4666232,147.505145 L58.294393,144.206271 L62.3411678,108.952429 C62.3411678,108.952429 40.3539969,82.5752221 46.9231391,50.1056661 C53.4922814,17.6407047 127.03463,12.0629431 132.848435,42.2444223" id="Fill-49" fill="#FFADAD"></path>
                <path d="M134.144868,52.5596055 C134.144868,52.5596055 125.941451,57.4619709 109.25995,46.471851 C109.25995,46.471851 98.1404752,66.5959001 88.3714512,64.055124 C88.3714512,64.055124 87.8678932,78.4314139 85.839928,79.4468054 C83.8211185,80.4576024 79.609543,67.1012986 75.3979674,66.2559047 C71.1863919,65.4105109 66.9702386,69.6374801 71.3511927,82.1483901 C75.7321468,94.6638946 83.8211185,94.6638946 83.8211185,94.6638946 L62.3375055,108.952888 C62.3375055,108.952888 45.4042252,103.457828 42.0395426,89.4215339 C42.0395426,89.4215339 20.4735293,68.2820932 33.447013,53.4049994 C33.447013,53.4049994 19.1230784,41.2294902 52.4815032,26.5177995 C52.4815032,26.5177995 60.318696,-2.65288264 75.9885036,10.7907173 C75.9885036,10.7907173 104.74624,-10.7668257 111.956274,8.42453344 C111.956274,8.42453344 149.022716,5.37835888 151.384861,25.502408 C153.73785,45.6264571 144.811141,50.5288225 144.811141,50.5288225 C144.811141,50.5288225 146.843684,67.1012986 136.566524,68.1120956 L134.144868,52.5596055 Z" id="Fill-53" fill="#212226"></path>
                <path d="M31.0862418,185.130225 C31.0862418,185.130225 11.539038,180.393263 14.9128763,159.428414 C18.2821367,138.458971 45.694,128.989641 101.849866,142.180542 C108.47852,143.738088 113.642278,154.691452 109.261324,164.165377 C109.261324,164.165377 127.288698,208.63585 132.846146,245.157782 C138.408173,281.68431 141.438676,319.727033 147.508838,337.484898 C153.569845,355.238169 148.515954,375.026817 131.839031,375.026817 L29.2917444,375.026817 C9.01667053,375.026817 6.38443583,346.614233 14.5237633,317.195446 C22.6630908,287.772065 34.4555022,206.269666 31.0862418,185.130225" id="Fill-55" fill="#4340A3"></path>
                <path d="M76.7438405,173.630571 C108.80217,180.476424 86.4899756,244.14285 80.0993675,262.406114 C73.7133372,280.669378 66.6360592,296.901859 76.7438405,311.103556 C86.8516217,325.309849 104.74624,341.036931 104.74624,341.036931 L92.8119167,366.403341 C92.8119167,366.403341 26.095067,357.779405 10.2284141,337.990756 C-5.64281674,318.206702 3.34798143,273.952173 17.1042689,243.637452 C30.8605563,213.322731 52.989639,168.558208 76.7438405,173.630571" id="Fill-57" fill="#FFFFFF"></path>
                <path d="M90.8480407,370.784686 C90.0560814,370.421718 89.7127464,369.484434 90.0789704,368.68958 L106.353048,333.348441 C106.714694,332.553587 107.648565,332.208997 108.440524,332.57656 C109.227906,332.939528 109.571241,333.876812 109.209594,334.671666 L92.9355172,370.012805 C92.5692933,370.807659 91.6354222,371.152249 90.8480407,370.784686" id="Fill-59" fill="#A67070"></path>
            </g>
        </g>
    </g>
</svg>