<?xml version="1.0" encoding="UTF-8"?>
<svg width="1024px" height="300px" viewBox="0 0 1024 300" version="1.1" xmlns="http://www.w3.org/2000/svg" xmlns:xlink="http://www.w3.org/1999/xlink">
    <!-- Generator: Sketch 51.3 (57544) - http://www.bohemiancoding.com/sketch -->
    <title>Pure money Copy</title>
    <desc>Created with Sketch.</desc>
    <defs></defs>
    <g id="Pure-money-Copy" stroke="none" stroke-width="1" fill="none" fill-rule="evenodd">
        <g id="Group-3" transform="translate(147.000000, 71.000000)" fill="#FFFFFF">
            <g id="Stacked-Group-Copy-2" transform="translate(163.000000, 0.000000)">
                <path d="M25.174,150 C22.8779885,150 21.73,148.852011 21.73,146.556 L21.73,101.374 L5.822,101.374 C3.52598852,101.374 2.378,100.226011 2.378,97.93 C2.378,95.6339885 3.52598852,94.486 5.822,94.486 L44.526,94.486 C46.8220115,94.486 47.97,95.6339885 47.97,97.93 C47.97,100.226011 46.8220115,101.374 44.526,101.374 L28.618,101.374 L28.618,146.556 C28.618,147.649339 28.3173363,148.496664 27.716,149.098 C27.1146637,149.699336 26.2673388,150 25.174,150 Z M91.658,143.112 C92.7513388,143.112 93.5986637,143.412664 94.2,144.014 C94.8013363,144.615336 95.102,145.462661 95.102,146.556 C95.102,147.649339 94.8013363,148.496664 94.2,149.098 C93.5986637,149.699336 92.7513388,150 91.658,150 L62.22,150 C61.1266612,150 60.2793363,149.699336 59.678,149.098 C59.0766637,148.496664 58.776,147.649339 58.776,146.556 L58.776,97.848 C58.776,96.7546612 59.0766637,95.9073363 59.678,95.306 C60.2793363,94.7046637 61.1266612,94.404 62.22,94.404 L91.658,94.404 C92.7513388,94.404 93.5986637,94.7046637 94.2,95.306 C94.8013363,95.9073363 95.102,96.7546612 95.102,97.848 C95.102,98.9413388 94.8013363,99.7886637 94.2,100.39 C93.5986637,100.991336 92.7513388,101.292 91.658,101.292 L65.664,101.292 L65.664,118.512 L81.982,118.512 C83.0753388,118.512 83.9226637,118.812664 84.524,119.414 C85.1253363,120.015336 85.426,120.862661 85.426,121.956 C85.426,123.049339 85.1253363,123.896664 84.524,124.498 C83.9226637,125.099336 83.0753388,125.4 81.982,125.4 L65.664,125.4 L65.664,143.112 L91.658,143.112 Z M122.882,150 C116.595302,150 111.962348,148.510348 108.983,145.531 C106.003652,142.551652 104.514,137.918698 104.514,131.632 L104.514,112.772 C104.514,106.485302 106.003652,101.838682 108.983,98.832 C111.962348,95.8253183 116.567969,94.3493331 122.8,94.404 L132.722,94.404 C137.860692,94.404 141.782986,95.4699893 144.489,97.602 C147.195014,99.7340107 148.766664,103.068644 149.204,107.606 C149.368001,108.754006 149.149336,109.628664 148.548,110.23 C147.946664,110.831336 147.072006,111.132 145.924,111.132 C144.830661,111.132 143.997003,110.845003 143.423,110.271 C142.848997,109.696997 142.480001,108.836006 142.316,107.688 C142.042665,105.227988 141.19534,103.547005 139.774,102.645 C138.35266,101.742995 136.002016,101.292 132.722,101.292 L122.8,101.292 C119.847985,101.237333 117.552008,101.56533 115.912,102.276 C114.271992,102.98667 113.110337,104.161992 112.427,105.802 C111.743663,107.442008 111.402,109.765318 111.402,112.772 L111.402,131.632 C111.402,134.638682 111.75733,136.948325 112.468,138.561 C113.17867,140.173675 114.340325,141.33533 115.953,142.046 C117.565675,142.75667 119.875318,143.112 122.882,143.112 L132.722,143.112 C136.002016,143.112 138.35266,142.661005 139.774,141.759 C141.19534,140.856995 142.042665,139.176012 142.316,136.716 C142.480001,135.567994 142.848997,134.707003 143.423,134.133 C143.997003,133.558997 144.830661,133.272 145.924,133.272 C147.072006,133.272 147.946664,133.572664 148.548,134.174 C149.149336,134.775336 149.368001,135.649994 149.204,136.798 C148.766664,141.335356 147.195014,144.669989 144.489,146.802 C141.782986,148.934011 137.860692,150 132.722,150 L122.882,150 Z M166.898,150 C166.023329,150 165.23067,149.64467 164.52,148.934 C163.80933,148.22333 163.454,147.430671 163.454,146.556 L163.454,97.848 C163.454,96.918662 163.80933,96.1123368 164.52,95.429 C165.23067,94.7456632 166.023329,94.404 166.898,94.404 C167.827338,94.404 168.633663,94.7456632 169.317,95.429 C170.000337,96.1123368 170.342,96.918662 170.342,97.848 L170.342,118.43 L203.798,118.43 L203.798,97.848 C203.798,96.918662 204.139663,96.1123368 204.823,95.429 C205.506337,94.7456632 206.312662,94.404 207.242,94.404 C208.171338,94.404 208.977663,94.7456632 209.661,95.429 C210.344337,96.1123368 210.686,96.918662 210.686,97.848 L210.686,146.556 C210.686,147.430671 210.344337,148.22333 209.661,148.934 C208.977663,149.64467 208.171338,150 207.242,150 C206.312662,150 205.506337,149.658337 204.823,148.975 C204.139663,148.291663 203.798,147.485338 203.798,146.556 L203.798,125.318 L170.342,125.318 L170.342,146.556 C170.342,147.430671 170.000337,148.22333 169.317,148.934 C168.633663,149.64467 167.827338,150 166.898,150 Z M269.216,94.404 C270.309339,94.404 271.156664,94.7046637 271.758,95.306 C272.359336,95.9073363 272.66,96.7546612 272.66,97.848 L272.66,146.556 C272.66,147.649339 272.359336,148.496664 271.758,149.098 C271.156664,149.699336 270.309339,150 269.216,150 C268.559997,150 267.958669,149.836002 267.412,149.508 C266.865331,149.179998 266.318669,148.66067 265.772,147.95 L234.53,107.688 L234.53,146.556 C234.53,147.649339 234.229336,148.496664 233.628,149.098 C233.026664,149.699336 232.179339,150 231.086,150 C229.992661,150 229.145336,149.699336 228.544,149.098 C227.942664,148.496664 227.642,147.649339 227.642,146.556 L227.642,97.848 C227.642,96.7546612 227.942664,95.9073363 228.544,95.306 C229.145336,94.7046637 229.992661,94.404 231.086,94.404 C231.742003,94.404 232.329664,94.5679984 232.849,94.896 C233.368336,95.2240016 233.928664,95.7433298 234.53,96.454 L265.772,136.716 L265.772,97.848 C265.772,96.7546612 266.072664,95.9073363 266.674,95.306 C267.275336,94.7046637 268.122661,94.404 269.216,94.404 Z M306.016,150 C299.729302,150 295.096348,148.510348 292.117,145.531 C289.137652,142.551652 287.648,137.918698 287.648,131.632 L287.648,112.69 C287.648,106.403302 289.151318,101.770348 292.158,98.791 C295.164682,95.8116518 299.783969,94.3493331 306.016,94.404 L315.856,94.404 C322.142698,94.404 326.775652,95.8936518 329.755,98.873 C332.734348,101.852348 334.224,106.485302 334.224,112.772 L334.224,131.632 C334.224,137.918698 332.734348,142.551652 329.755,145.531 C326.775652,148.510348 322.142698,150 315.856,150 L306.016,150 Z M315.856,143.112 C318.862682,143.112 321.172325,142.75667 322.785,142.046 C324.397675,141.33533 325.55933,140.173675 326.27,138.561 C326.98067,136.948325 327.336,134.638682 327.336,131.632 L327.336,112.772 C327.336,109.819985 326.98067,107.524008 326.27,105.884 C325.55933,104.243992 324.384008,103.06867 322.744,102.358 C321.103992,101.64733 318.808015,101.292 315.856,101.292 L306.016,101.292 C303.063985,101.237333 300.768008,101.56533 299.128,102.276 C297.487992,102.98667 296.31267,104.161992 295.602,105.802 C294.89133,107.442008 294.536,109.737985 294.536,112.69 L294.536,131.632 C294.536,134.638682 294.89133,136.948325 295.602,138.561 C296.31267,140.173675 297.474325,141.33533 299.087,142.046 C300.699675,142.75667 303.009318,143.112 306.016,143.112 L315.856,143.112 Z M352.656,150 C350.359989,150 349.212,148.852011 349.212,146.556 L349.212,97.848 C349.212,95.5519885 350.359989,94.404 352.656,94.404 C354.952011,94.404 356.1,95.5519885 356.1,97.848 L356.1,143.112 L378.814,143.112 C381.110011,143.112 382.258,144.259989 382.258,146.556 C382.258,148.852011 381.110011,150 378.814,150 L352.656,150 Z M408.234,150 C401.947302,150 397.314348,148.510348 394.335,145.531 C391.355652,142.551652 389.866,137.918698 389.866,131.632 L389.866,112.69 C389.866,106.403302 391.369318,101.770348 394.376,98.791 C397.382682,95.8116518 402.001969,94.3493331 408.234,94.404 L418.074,94.404 C424.360698,94.404 428.993652,95.8936518 431.973,98.873 C434.952348,101.852348 436.442,106.485302 436.442,112.772 L436.442,131.632 C436.442,137.918698 434.952348,142.551652 431.973,145.531 C428.993652,148.510348 424.360698,150 418.074,150 L408.234,150 Z M418.074,143.112 C421.080682,143.112 423.390325,142.75667 425.003,142.046 C426.615675,141.33533 427.77733,140.173675 428.488,138.561 C429.19867,136.948325 429.554,134.638682 429.554,131.632 L429.554,112.772 C429.554,109.819985 429.19867,107.524008 428.488,105.884 C427.77733,104.243992 426.602008,103.06867 424.962,102.358 C423.321992,101.64733 421.026015,101.292 418.074,101.292 L408.234,101.292 C405.281985,101.237333 402.986008,101.56533 401.346,102.276 C399.705992,102.98667 398.53067,104.161992 397.82,105.802 C397.10933,107.442008 396.754,109.737985 396.754,112.69 L396.754,131.632 C396.754,134.638682 397.10933,136.948325 397.82,138.561 C398.53067,140.173675 399.692325,141.33533 401.305,142.046 C402.917675,142.75667 405.227318,143.112 408.234,143.112 L418.074,143.112 Z M467.83,150 C461.543302,150 456.910348,148.510348 453.931,145.531 C450.951652,142.551652 449.462,137.918698 449.462,131.632 L449.462,112.772 C449.462,106.485302 450.951652,101.838682 453.931,98.832 C456.910348,95.8253183 461.515969,94.3493331 467.748,94.404 L477.67,94.404 C482.808692,94.404 486.730986,95.4699893 489.437,97.602 C492.143014,99.7340107 493.714664,103.068644 494.152,107.606 C494.316001,108.754006 494.097336,109.628664 493.496,110.23 C492.894664,110.831336 492.020006,111.132 490.872,111.132 C489.778661,111.132 488.945003,110.845003 488.371,110.271 C487.796997,109.696997 487.428001,108.836006 487.264,107.688 C486.990665,105.227988 486.14334,103.547005 484.722,102.645 C483.30066,101.742995 480.950016,101.292 477.67,101.292 L467.748,101.292 C464.795985,101.237333 462.500008,101.56533 460.86,102.276 C459.219992,102.98667 458.058337,104.161992 457.375,105.802 C456.691663,107.442008 456.35,109.765318 456.35,112.772 L456.35,131.632 C456.35,134.638682 456.70533,136.948325 457.416,138.561 C458.12667,140.173675 459.288325,141.33533 460.901,142.046 C462.513675,142.75667 464.823318,143.112 467.83,143.112 L477.67,143.112 C480.294013,143.112 482.302993,142.825003 483.697,142.251 C485.091007,141.676997 486.074997,140.693007 486.649,139.299 C487.223003,137.904993 487.51,135.896013 487.51,133.272 L487.51,129.418 L481.114,129.336 C478.817989,129.336 477.67,128.188011 477.67,125.892 C477.67,124.798661 477.970664,123.951336 478.572,123.35 C479.173336,122.748664 480.020661,122.448 481.114,122.448 L490.954,122.53 C492.047339,122.53 492.894664,122.830664 493.496,123.432 C494.097336,124.033336 494.398,124.880661 494.398,125.974 L494.398,133.272 C494.398,139.066696 493.045014,143.30332 490.339,145.982 C487.632986,148.66068 483.410029,150 477.67,150 L467.83,150 Z M546.778,95.224 C547.980673,95.9893372 548.582,96.8913281 548.582,97.93 C548.582,98.5860033 548.336002,99.2419967 547.844,99.898 L528.328,129.828 L528.328,146.556 C528.328,147.649339 528.027336,148.496664 527.426,149.098 C526.824664,149.699336 525.977339,150 524.884,150 C523.790661,150 522.943336,149.699336 522.342,149.098 C521.740664,148.496664 521.44,147.649339 521.44,146.556 L521.44,129.828 L502.662,99.898 C502.224664,99.1326628 502.006,98.4493363 502.006,97.848 C502.006,96.6999943 502.579994,95.7706702 503.728,95.06 C504.493337,94.6226645 505.176664,94.404 505.778,94.404 C506.816672,94.404 507.718663,94.9779943 508.484,96.126 L524.884,122.448 L542.104,96.126 C542.760003,95.0326612 543.634661,94.486 544.728,94.486 C545.384003,94.486 546.06733,94.7319975 546.778,95.224 Z" id="Technology"></path>
                <path d="M31.16,23.404 C36.1893585,23.404 40.0296534,24.7296534 42.681,27.381 C45.3323466,30.0323466 46.658,33.8726415 46.658,38.902 L46.658,41.362 C46.658,46.3366915 45.3323466,50.1633199 42.681,52.842 C40.0296534,55.5206801 36.1893585,56.86 31.16,56.86 L15.416,56.86 L15.416,75.556 C15.416,76.6493388 15.1153363,77.4966637 14.514,78.098 C13.9126637,78.6993363 13.0653388,79 11.972,79 C10.8786612,79 10.0313363,78.6993363 9.43,78.098 C8.82866366,77.4966637 8.528,76.6493388 8.528,75.556 L8.528,26.848 C8.528,25.7546612 8.82866366,24.9073363 9.43,24.306 C10.0313363,23.7046637 10.8786612,23.404 11.972,23.404 L31.16,23.404 Z M39.77,38.902 C39.77,35.8406514 39.1140066,33.64034 37.802,32.301 C36.4899934,30.96166 34.2760156,30.292 31.16,30.292 L15.416,30.292 L15.416,49.972 L31.16,49.972 C34.2760156,49.972 36.4899934,49.3160066 37.802,48.004 C39.1140066,46.6919934 39.77,44.4780156 39.77,41.362 L39.77,38.902 Z M77.842,79 C71.5553019,79 66.9223482,77.5103482 63.943,74.531 C60.9636518,71.5516518 59.474,66.9186981 59.474,60.632 L59.474,26.848 C59.474,24.5519885 60.6219885,23.404 62.918,23.404 C65.2140115,23.404 66.362,24.5519885 66.362,26.848 L66.362,60.632 C66.362,63.6386817 66.7173298,65.9483253 67.428,67.561 C68.1386702,69.1736747 69.3003253,70.3353298 70.913,71.046 C72.5256747,71.7566702 74.8353183,72.112 77.842,72.112 L87.682,72.112 C90.6886817,72.112 92.9983253,71.7566702 94.611,71.046 C96.2236747,70.3353298 97.3853298,69.1736747 98.096,67.561 C98.8066702,65.9483253 99.162,63.6386817 99.162,60.632 L99.162,26.848 C99.162,24.5519885 100.309989,23.404 102.606,23.404 C104.902011,23.404 106.05,24.5519885 106.05,26.848 L106.05,60.632 C106.05,66.9186981 104.560348,71.5516518 101.581,74.531 C98.6016518,77.5103482 93.9686981,79 87.682,79 L77.842,79 Z M161.916,41.362 C161.916,45.6806883 160.904677,49.1519869 158.882,51.776 C156.859323,54.4000131 153.934686,56.0126637 150.108,56.614 L160.85,74.49 C161.178002,75.0366694 161.342,75.6379967 161.342,76.294 C161.342,77.4966727 160.740673,78.4533298 159.538,79.164 C158.82733,79.6013355 158.198669,79.82 157.652,79.82 C156.558661,79.82 155.629337,79.2186727 154.864,78.016 L142.4,57.27 L142.154,56.86 L130.674,56.86 L130.674,75.556 C130.674,76.6493388 130.373336,77.4966637 129.772,78.098 C129.170664,78.6993363 128.323339,79 127.23,79 C126.136661,79 125.289336,78.6993363 124.688,78.098 C124.086664,77.4966637 123.786,76.6493388 123.786,75.556 L123.786,26.848 C123.786,25.7546612 124.086664,24.9073363 124.688,24.306 C125.289336,23.7046637 126.136661,23.404 127.23,23.404 L146.418,23.404 C151.447358,23.404 155.287653,24.7296534 157.939,27.381 C160.590347,30.0323466 161.916,33.8726415 161.916,38.902 L161.916,41.362 Z M155.028,38.902 C155.028,35.8406514 154.372007,33.64034 153.06,32.301 C151.747993,30.96166 149.534016,30.292 146.418,30.292 L130.674,30.292 L130.674,49.972 L146.418,49.972 C149.534016,49.972 151.747993,49.3160066 153.06,48.004 C154.372007,46.6919934 155.028,44.4780156 155.028,41.362 L155.028,38.902 Z M209.418,72.112 C210.511339,72.112 211.358664,72.4126637 211.96,73.014 C212.561336,73.6153363 212.862,74.4626612 212.862,75.556 C212.862,76.6493388 212.561336,77.4966637 211.96,78.098 C211.358664,78.6993363 210.511339,79 209.418,79 L179.98,79 C178.886661,79 178.039336,78.6993363 177.438,78.098 C176.836664,77.4966637 176.536,76.6493388 176.536,75.556 L176.536,26.848 C176.536,25.7546612 176.836664,24.9073363 177.438,24.306 C178.039336,23.7046637 178.886661,23.404 179.98,23.404 L209.418,23.404 C210.511339,23.404 211.358664,23.7046637 211.96,24.306 C212.561336,24.9073363 212.862,25.7546612 212.862,26.848 C212.862,27.9413388 212.561336,28.7886637 211.96,29.39 C211.358664,29.9913363 210.511339,30.292 209.418,30.292 L183.424,30.292 L183.424,47.512 L199.742,47.512 C200.835339,47.512 201.682664,47.8126637 202.284,48.414 C202.885336,49.0153363 203.186,49.8626612 203.186,50.956 C203.186,52.0493388 202.885336,52.8966637 202.284,53.498 C201.682664,54.0993363 200.835339,54.4 199.742,54.4 L183.424,54.4 L183.424,72.112 L209.418,72.112 Z M303.52,23.404 C305.378676,23.404 306.308,24.5519885 306.308,26.848 L306.308,75.556 C306.308,76.6493388 306.007336,77.4966637 305.406,78.098 C304.804664,78.6993363 303.957339,79 302.864,79 C301.770661,79 300.923336,78.6993363 300.322,78.098 C299.720664,77.4966637 299.42,76.6493388 299.42,75.556 L299.42,37.59 L284.332,59.812 C283.785331,60.5773372 283.184003,61.1376649 282.528,61.493 C281.871997,61.8483351 281.079338,62.026 280.15,62.026 C279.493997,62.026 278.906336,61.8483351 278.387,61.493 C277.867664,61.1376649 277.334669,60.5773372 276.788,59.812 L261.618,37.508 L261.618,75.556 C261.618,76.6493388 261.317336,77.4966637 260.716,78.098 C260.114664,78.6993363 259.267339,79 258.174,79 C257.080661,79 256.233336,78.6993363 255.632,78.098 C255.030664,77.4966637 254.73,76.6493388 254.73,75.556 L254.73,26.848 C254.73,25.7546612 255.030664,24.9073363 255.632,24.306 C256.233336,23.7046637 257.080661,23.404 258.174,23.404 C259.704674,23.404 260.961995,24.1419926 261.946,25.618 L280.642,53.744 L299.338,25.618 C300.267338,24.1419926 301.661324,23.404 303.52,23.404 Z M341.264,79 C334.977302,79 330.344348,77.5103482 327.365,74.531 C324.385652,71.5516518 322.896,66.9186981 322.896,60.632 L322.896,41.69 C322.896,35.4033019 324.399318,30.7703482 327.406,27.791 C330.412682,24.8116518 335.031969,23.3493331 341.264,23.404 L351.104,23.404 C357.390698,23.404 362.023652,24.8936518 365.003,27.873 C367.982348,30.8523482 369.472,35.4853019 369.472,41.772 L369.472,60.632 C369.472,66.9186981 367.982348,71.5516518 365.003,74.531 C362.023652,77.5103482 357.390698,79 351.104,79 L341.264,79 Z M351.104,72.112 C354.110682,72.112 356.420325,71.7566702 358.033,71.046 C359.645675,70.3353298 360.80733,69.1736747 361.518,67.561 C362.22867,65.9483253 362.584,63.6386817 362.584,60.632 L362.584,41.772 C362.584,38.8199852 362.22867,36.5240082 361.518,34.884 C360.80733,33.2439918 359.632008,32.0686702 357.992,31.358 C356.351992,30.6473298 354.056015,30.292 351.104,30.292 L341.264,30.292 C338.311985,30.2373331 336.016008,30.5653298 334.376,31.276 C332.735992,31.9866702 331.56067,33.1619918 330.85,34.802 C330.13933,36.4420082 329.784,38.7379852 329.784,41.69 L329.784,60.632 C329.784,63.6386817 330.13933,65.9483253 330.85,67.561 C331.56067,69.1736747 332.722325,70.3353298 334.335,71.046 C335.947675,71.7566702 338.257318,72.112 341.264,72.112 L351.104,72.112 Z M427.634,23.404 C428.727339,23.404 429.574664,23.7046637 430.176,24.306 C430.777336,24.9073363 431.078,25.7546612 431.078,26.848 L431.078,75.556 C431.078,76.6493388 430.777336,77.4966637 430.176,78.098 C429.574664,78.6993363 428.727339,79 427.634,79 C426.977997,79 426.376669,78.8360016 425.83,78.508 C425.283331,78.1799984 424.736669,77.6606702 424.19,76.95 L392.948,36.688 L392.948,75.556 C392.948,76.6493388 392.647336,77.4966637 392.046,78.098 C391.444664,78.6993363 390.597339,79 389.504,79 C388.410661,79 387.563336,78.6993363 386.962,78.098 C386.360664,77.4966637 386.06,76.6493388 386.06,75.556 L386.06,26.848 C386.06,25.7546612 386.360664,24.9073363 386.962,24.306 C387.563336,23.7046637 388.410661,23.404 389.504,23.404 C390.160003,23.404 390.747664,23.5679984 391.267,23.896 C391.786336,24.2240016 392.346664,24.7433298 392.948,25.454 L424.19,65.716 L424.19,26.848 C424.19,25.7546612 424.490664,24.9073363 425.092,24.306 C425.693336,23.7046637 426.540661,23.404 427.634,23.404 Z M482.516,72.112 C483.609339,72.112 484.456664,72.4126637 485.058,73.014 C485.659336,73.6153363 485.96,74.4626612 485.96,75.556 C485.96,76.6493388 485.659336,77.4966637 485.058,78.098 C484.456664,78.6993363 483.609339,79 482.516,79 L453.078,79 C451.984661,79 451.137336,78.6993363 450.536,78.098 C449.934664,77.4966637 449.634,76.6493388 449.634,75.556 L449.634,26.848 C449.634,25.7546612 449.934664,24.9073363 450.536,24.306 C451.137336,23.7046637 451.984661,23.404 453.078,23.404 L482.516,23.404 C483.609339,23.404 484.456664,23.7046637 485.058,24.306 C485.659336,24.9073363 485.96,25.7546612 485.96,26.848 C485.96,27.9413388 485.659336,28.7886637 485.058,29.39 C484.456664,29.9913363 483.609339,30.292 482.516,30.292 L456.522,30.292 L456.522,47.512 L472.84,47.512 C473.933339,47.512 474.780664,47.8126637 475.382,48.414 C475.983336,49.0153363 476.284,49.8626612 476.284,50.956 C476.284,52.0493388 475.983336,52.8966637 475.382,53.498 C474.780664,54.0993363 473.933339,54.4 472.84,54.4 L456.522,54.4 L456.522,72.112 L482.516,72.112 Z M538.792,24.224 C539.994673,24.9893372 540.596,25.8913281 540.596,26.93 C540.596,27.5860033 540.350002,28.2419967 539.858,28.898 L520.342,58.828 L520.342,75.556 C520.342,76.6493388 520.041336,77.4966637 519.44,78.098 C518.838664,78.6993363 517.991339,79 516.898,79 C515.804661,79 514.957336,78.6993363 514.356,78.098 C513.754664,77.4966637 513.454,76.6493388 513.454,75.556 L513.454,58.828 L494.676,28.898 C494.238664,28.1326628 494.02,27.4493363 494.02,26.848 C494.02,25.6999943 494.593994,24.7706702 495.742,24.06 C496.507337,23.6226645 497.190664,23.404 497.792,23.404 C498.830672,23.404 499.732663,23.9779943 500.498,25.126 L516.898,51.448 L534.118,25.126 C534.774003,24.0326612 535.648661,23.486 536.742,23.486 C537.398003,23.486 538.08133,23.7319975 538.792,24.224 Z" id="Pure-Money"></path>
            </g>
            <path d="M55.92,0 C55.92,0 111.84,0 111.84,48.96 C111.84,97.92 55.92,97.92 55.92,97.92 L28.08,97.92 L28.08,168 L26.64,168 L0,97.92 L0,70.08 L26.64,70.08 L0,28.08 L0,0 L55.92,0 Z M59.52,69.84 C66.96,68.88 84,65.28 84,48.96 C84,28.08 55.92,28.08 55.92,28.08 L33.36,28.08 L59.52,69.84 Z" id="P"></path>
        </g>
    </g>
</svg>