<?xml version="1.0" encoding="utf-8"?>
<!-- Generator: Adobe Illustrator 22.1.0, SVG Export Plug-In . SVG Version: 6.00 Build 0)  -->
<svg version="1.1" id="Layer_1" xmlns="http://www.w3.org/2000/svg" xmlns:xlink="http://www.w3.org/1999/xlink" x="0px" y="0px"
	 viewBox="0 0 3400 1996" style="enable-background:new 0 0 3400 1996;" xml:space="preserve">
<style type="text/css">
	.st0{fill:#FCFCFC;}
</style>
<g>
	<path class="st0" d="M1039,1746.2c-6.1,0-11.6,0-18.3,0c0-47.6,0-94.8,0-141.9c-0.8-0.2-1.5-0.4-2.3-0.7
		c-7.8,13.2-14.1,27.3-21.1,40.9s-13.9,27.3-20.9,40.9c-7.1,13.9-14.1,27.9-21.3,42c-4.3,0-8.2,0-12.7,0
		c-20.8-41.2-41.7-82.4-62.5-123.6c-0.7,0.1-1.4,0.2-2.2,0.3c-0.4,15.3-0.1,30.7-0.2,46.1c-0.1,16,0,32,0,48c0,15.6,0,31.2,0,47.7
		c-6.6,0-12.4,0-18.9,0c0-59,0-118.1,0-178.4c7.2,0,14.1,0.1,21,0c4.3-0.1,5.4,3.2,6.9,6.2c10,19.6,19.9,39.2,29.9,58.8
		c9.1,17.8,18.1,35.6,27.2,53.4c1.5,2.9,3.1,5.8,5.6,10.3c22.1-43.5,43.5-85.8,65-128.3c8.3,0,16.2,0,24.8,0
		C1039,1627.5,1039,1686.6,1039,1746.2z"/>
	<path class="st0" d="M3032.2,1634.5c0-7.1,0-14.3,0-22.1c6.8,0,12.6,0,19.7,0c0.1,3.1,0.4,6.3,0.4,9.4c0,36.3-0.4,72.6,0.1,108.9
		c0.6,35.5-20.6,65.7-67.4,66.3c-18.8,0.2-36.1-5.5-51.6-16.4c-1.3-0.9-2.4-2.1-4.1-3.6c2.9-4.8,5.6-9.2,8.6-14.2
		c3.4,2.2,6.1,3.9,8.8,5.6c15.3,9.6,31.8,13.2,49.7,9.6c20.9-4.1,34.7-19.8,35.6-41.1c0.3-6.5,0-13.1,0-21.7c-2.4,2.3-3.3,3.1-4,4
		c-16.5,21-38.5,25.2-62.9,19.1c-25-6.3-38.4-24.1-43-48.7c-2.4-12.9-1.9-26,2.6-38.5c7.5-21.2,22.1-34.8,44.3-39
		c22.7-4.2,43.1,0.4,58.4,19.4c0.8,1,1.7,2,2.6,3C3030.8,1634.7,3031.5,1634.6,3032.2,1634.5z M3032.1,1677c0-2,0.1-4,0-6
		c-1.7-23.2-18.2-40.1-41.5-42.5c-22.8-2.4-42.8,11.4-48.9,33.7c-7.2,26.1,5.8,52.3,29.7,59.7C3003,1731.7,3032,1710.3,3032.1,1677z
		"/>
	<path class="st0" d="M204.2,1568c2.9-0.2,5.2-0.5,7.4-0.5c20.3,0,40.6,0,61,0c11.8,0,23.2,1.6,34.2,6.3
		c20.3,8.7,31.3,24.1,33.3,45.9c0.5,5.6,0.5,11.4-0.1,17c-2.5,24.3-15.1,41.1-38.3,48.6c-9.7,3.1-20.2,4.1-30.4,4.6
		c-15.2,0.7-30.6,0.2-47.2,0.2c-0.7,18.7,0.1,36.9-0.5,55.8c-6.6,0-12.7,0-19.3,0C204.2,1686.9,204.2,1628,204.2,1568z
		 M224.2,1669.3c20.7,0,40.6,0,60.5,0c1,0,1.9-0.4,2.9-0.7c26.3-5.9,39.3-27.9,31.5-53.8c-5.2-17.3-18.7-25.2-35.2-26.5
		c-19.2-1.5-38.6-0.6-57.9-0.7c-0.5,0-1,0.7-1.9,1.4C224.2,1615.4,224.2,1642,224.2,1669.3z"/>
	<path class="st0" d="M2228.3,1557.2c0,27.1,0,53.3,0,81c1.9-1.4,3.1-1.9,3.7-2.8c12.9-20.1,32.4-25.6,54.6-24.1
		c28.2,2,45.1,19.9,45.6,48.2c0.5,27.3,0.1,54.6,0.1,81.9c0,1.3-0.3,2.6-0.6,4.6c-6,0-11.8,0-18.8,0c-0.2-3.5-0.5-7-0.5-10.5
		c0-21.3-0.5-42.6,0.1-63.9c1-33.1-22.9-43.9-47.3-39.8c-18.2,3.1-31.6,16.1-35.1,35c-1.1,5.9-1.5,11.9-1.6,17.9
		c-0.2,17-0.1,34-0.1,51c0,3.3-0.3,6.5-0.4,10.4c-6.3,0-12.1,0-17.9,0c-2-7.5-2.4-177.7-0.4-188.9
		C2215.7,1557.2,2221.7,1557.2,2228.3,1557.2z"/>
	<path class="st0" d="M2027.9,1686.9c-36,0-71.8,0-107.6,0c-0.9,14.6,7.9,29.9,22.1,36.9c24.2,12,46.5,7,67.3-10
		c3.5,3.7,6.8,7.3,10.5,11.1c-13.4,15.1-30.2,21.2-49.1,22.5c-29,2-54.3-11.3-65-35.7c-12.2-27.7-10.3-54.6,9.1-78.9
		c7.7-9.6,18.1-15.5,30-18.9c12.1-3.5,24.4-3.7,36.7-1.3c25.6,4.9,42.4,24.2,46.1,52.4c0.7,5.3,0.8,10.6,1,16
		C2028.9,1682.7,2028.3,1684.3,2027.9,1686.9z M2010.5,1670.1c-1.2-18.4-8.9-31.1-24.8-37.9c-13.5-5.8-27.3-5.4-40.7,0.4
		c-15.3,6.6-25.5,22-24.9,37.5C1949.8,1670.1,1979.6,1670.1,2010.5,1670.1z"/>
	<path class="st0" d="M1535.3,1686.8c-36.6,0-72.5,0-108.1,0c-1.7,13.1,6.4,28.5,19.9,35.9c24.6,13.5,47.4,8.5,69.2-8.9
		c3.4,3.6,6.7,7.2,10.4,11.1c-13.7,15.3-30.8,21.8-50,22.5c-27.8,1-51.1-8.6-63.5-34.7c-12.7-26.5-11.1-53.1,6.6-77.5
		c7.7-10.6,18.4-17.2,30.9-21c12.4-3.7,25.1-4,37.6-1.6c20.3,3.8,34.2,15.8,41.6,35C1534.4,1659.9,1536,1672.7,1535.3,1686.8z
		 M1516.5,1670.1c-0.9-26-19.3-42.5-45.4-41.8c-25.2,0.7-45.2,19.2-44.7,41.8C1456.2,1670.1,1486,1670.1,1516.5,1670.1z"/>
	<path class="st0" d="M640.6,1686.9c3.5,40.3,52.7,59.1,90.7,27.2c3.3,3.5,6.6,7.1,10.3,11c-13.9,15.2-31,21.8-50.2,22.4
		c-28.2,0.9-51.5-9-63.9-35.6c-12.6-27.1-10.3-53.8,8.2-78.1c7.7-10.1,18.4-16.3,30.5-19.8s24.4-3.7,36.6-1.4
		c20.6,3.9,34.7,16,42.1,35.7c4.5,12,6.2,24.4,4.6,38.5C713.4,1686.9,677.3,1686.9,640.6,1686.9z M640.5,1670c30.5,0,60.6,0,90.7,0
		c1.1-22.1-14.7-39.2-38.7-41.4C662.3,1625.8,642.8,1645.7,640.5,1670z"/>
	<path class="st0" d="M1146.9,1611.4c40.2,0.1,68.1,28,68.2,67.9c0,40.1-28.8,68.7-69,68.4c-40.3-0.3-68.3-28.8-68.1-69.3
		C1078.3,1638.7,1106.5,1611.2,1146.9,1611.4z M1147.6,1629.5c-28.6-0.4-49.1,19.6-49.6,48.7c-0.5,29.7,19.5,51.2,47.9,51.6
		c28.2,0.3,48.5-20.1,49-49.4C1195.4,1650.9,1175.9,1630,1147.6,1629.5z"/>
	<path class="st0" d="M2600.4,1611.4c40.2-0.2,68.5,27.5,68.9,67.2c0.4,40.1-28.3,69.1-68.3,69.1c-39.9,0.1-68.5-28-68.8-67.6
		C2531.8,1639.7,2559.7,1611.6,2600.4,1611.4z M2600.9,1629.5c-28.5-0.1-48.6,20.4-48.8,49.5c-0.2,29.6,20.3,50.8,48.8,50.7
		c28.2-0.1,48.2-21,48.2-50.2C2649.3,1650.3,2629.3,1629.6,2600.9,1629.5z"/>
	<path class="st0" d="M2831.2,1611.4c40.3,0.3,68.3,28.2,68.2,67.9c-0.1,40.3-28.7,68.6-69,68.5c-40.1-0.1-68.5-29-68.2-69.2
		C2762.5,1638.8,2791,1611.1,2831.2,1611.4z M2831.3,1729.8c28-0.3,48.2-21.4,48.1-50.5c-0.1-29.1-20.3-49.8-48.6-49.7
		c-28.8,0-49,21.1-48.5,50.8C2782.6,1709.4,2803.1,1730,2831.3,1729.8z"/>
	<path class="st0" d="M2399.2,1636.4c0.7-0.6,1.5-1.2,2-1.9c12.2-18.3,30.5-24.1,51.2-23.3c29.2,1.1,46.7,17.4,48.1,46.8
		c1.3,28.3,0.4,56.6,0.5,84.9c0,0.9-0.5,1.9-1,3.4c-5.8,0-11.7,0-18.9,0c0-4,0-7.5,0-11.1c0-18.7,0-37.3,0-56c0-2.7,0-5.3,0-8
		c-0.2-21.7-8.8-34.6-25.9-38.8c-21.2-5.2-42.1,3.2-51.6,20.9c-4.2,7.8-6,16.1-6,25c0.1,19,0,38,0,57c0,3.3,0,6.6,0,10.7
		c-6.6,0-12.4,0-18.3,0c-2.1-6.4-2.8-119-0.6-133.5c5.7,0,11.6,0,18.5,0c0,7.9,0,15.7,0,23.5
		C2397.8,1636.1,2398.5,1636.2,2399.2,1636.4z"/>
	<path class="st0" d="M387.6,1612.5c0,3.9,0,7.2,0,10.5c0,20.7,0,41.3,0,62c0,3.3,0,6.7,0.3,10c1.4,17.6,11.6,28.8,29,32
		c24,4.4,45.8-10,50.8-34c1.3-6.1,1.7-12.6,1.7-18.9c0.2-17,0.1-34,0.1-51c0-3.3,0-6.6,0-10.6c6.8,0,12.9,0,19.5,0
		c0,44.6,0,88.8,0,133.6c-6.4,0-12.2,0-19.4,0c0-8.2,0-16.3,0-24.4c-0.6-0.1-1.2-0.2-1.9-0.3c-1.2,1.4-2.5,2.8-3.5,4.3
		c-15.5,24.2-54.6,27.6-75.4,14.1c-14.8-9.6-20.7-24.1-21-40.9c-0.4-22-0.2-44-0.2-66c0-6.6,0-13.2,0-20.5
		C374.3,1612.5,380.1,1612.5,387.6,1612.5z"/>
	<path class="st0" d="M1250.8,1612.1c6.5,0,12.1,0,18.8,0c0,8.3,0,16.4,0,26.3c2.4-1.9,3.5-2.4,4.1-3.3
		c12.8-19.5,31.9-25.3,53.8-23.8c28.3,1.9,45.5,19.5,46.2,47.7c0.7,27.6,0.2,55.3,0.2,82.9c0,1.3-0.5,2.5-0.9,4.2
		c-6.1,0-11.9,0-18.6,0c-0.2-3.7-0.4-6.9-0.4-10.2c0-21.3,0-42.6,0-64c0-3.7,0-7.4-0.6-11c-2.6-17-13.3-27.3-30.4-29.6
		c-29.8-4-52.2,15.3-52.8,45.7c-0.3,19-0.1,38-0.1,57c0,3.6,0,7.2,0,11.7c-6.7,0-12.7,0-19.4,0
		C1250.8,1701.5,1250.8,1657.4,1250.8,1612.1z"/>
	<path class="st0" d="M3140.7,1720.5c13.8-35.9,27.7-71.8,41.7-108.1c6.4,0,12.5,0,19.6,0c-0.8,2.7-1.3,5.2-2.2,7.6
		c-19.3,48.2-38.6,96.4-58.2,144.4c-2.9,7-6.7,13.9-11.5,19.7c-13.2,16-38.6,20-57.5,3c2.3-4.7,4.8-9.7,7.6-15.3
		c3.2,1.4,5.8,2.6,8.5,3.6c13.5,4.9,25.1,0.9,32.6-11.4c2.1-3.4,3.2-7.3,5.3-10.7c3.1-5.1,2.4-9.6,0.1-15
		c-16.2-38.3-32.1-76.7-48.1-115.1c-1.4-3.3-2.6-6.7-4.1-10.8c7.3,0,13.5,0,20.6,0c14.5,35.9,29,71.9,43.5,107.9
		C3139.2,1720.3,3140,1720.4,3140.7,1720.5z"/>
	<path class="st0" d="M1654.3,1612.1c6.7,0,12.6,0,19.5,0c-0.8,2.9-1.3,5.4-2.2,7.7c-19.3,48.2-38.6,96.4-58.2,144.5
		c-2.9,7-6.7,13.9-11.5,19.7c-13.3,16-38.5,20-57.4,3.2c1.1-2.5,2.3-5.1,3.6-7.7c1.2-2.4,2.5-4.6,4.2-7.5c2.9,1.2,5.5,2.4,8.2,3.4
		c13.5,4.9,25.2,0.9,32.7-11.4c2.1-3.4,3.3-7.3,5.3-10.7c3-5.1,2.5-9.6,0.2-15c-16.1-38-31.9-76.1-47.8-114.2
		c-1.5-3.6-2.9-7.3-4.6-11.7c7.3,0,13.5,0,20.7,0c14.6,36,29.2,72.2,43.8,108.4c0.6,0,1.3,0,1.9,0
		C1626.3,1684.8,1640.2,1648.8,1654.3,1612.1z"/>
	<path class="st0" d="M1884.9,1568.2c0,6.4,0,12,0,18.7c-19.3,0-38.1,0-58.2,0c0,53.6,0,106.1,0,159.2c-7.3,0-13.4,0-20.4,0
		c0-52.6,0-104.8,0-158.5c-19.5-1.2-38.4,0.1-57.8-0.8c0-6.3,0-12.1,0-18.6C1793.6,1568.2,1838.7,1568.2,1884.9,1568.2z"/>
	<path class="st0" d="M2159.5,1712.3c3.9,4.2,7.2,7.8,10.5,11.3c-19.3,28-69.3,32.3-97.2,9c-29.1-24.3-30.9-74.8-4.3-102.4
		c27.8-28.7,82.5-21.7,99.4,1.4c-1.2,1.8-2.5,3.7-3.9,5.5c-1.8,2.3-3.8,4.6-6.1,7.4c-2.6-1.8-5-3.4-7.4-5
		c-15.1-9.9-31.4-12.4-48.7-7.5c-11.7,3.4-20.7,10.7-26.2,21.7c-8.6,17.2-8.5,34.7,0.3,51.9c6.3,12.3,16.7,19.8,30.2,22.5
		C2126,1732.1,2143.8,1727.5,2159.5,1712.3z"/>
	<path class="st0" d="M2706.5,1556.9c3.9-0.2,7.2-0.4,10.4-0.4c2.6,0,5.2,0.3,8.3,0.6c0,63,0,125.4,0,188.8c-6.1,0-12.1,0-18.8,0
		C2706.5,1683.2,2706.5,1620.7,2706.5,1556.9z"/>
	<path class="st0" d="M538.7,1612.1c6.5,0,12.1,0,18.7,0c0,8.3,0,16.4,0,27.1c5.6-6.4,9.1-11.5,13.7-15.2c4.8-3.9,10.3-7.4,16.1-9.6
		c5.7-2.2,12-2.6,18.8-3.9c0,7.4,0,13.3,0,19.6c-2.4,0.5-4.5,1.2-6.7,1.4c-25.1,3.2-40.6,20.3-41.1,45.8
		c-0.4,19.6-0.1,39.3-0.1,58.9c0,3,0,5.9,0,9.7c-6.8,0-12.8,0-19.4,0C538.7,1701.5,538.7,1657.4,538.7,1612.1z"/>
	<path class="st0" d="M1415.8,777.7c44.9,0,89.5,0,135.9,0c-2.8-4.7-4.7-8-6.7-11.3c-41.6-65.6-83.1-131.2-124.9-196.6
		c-4-6.2-5.6-12.3-5.6-19.6c0.2-40.7,0.1-81.3,0.1-122c0-3.6,0-7.1,0-11.4c4.4-0.2,7.6-0.5,10.9-0.5c91,0,182-0.8,273,0.2
		c64.2,0.7,125.4,16,182.4,46.1c44,23.1,72,60.3,91.2,105c16.3,37.9,20.9,77.5,18.9,118.4c-1.8,37.9-11.3,73.6-30.4,106.6
		c-25.5,44.1-63.5,73.9-109.1,94.8c-42.3,19.4-86.9,30.6-133.2,32.4c-47.6,1.9-95.3,1.1-142.9,1.5c-4.7,0-9.3,0-15.4,0
		c-0.5,12.3-0.2,24.1-0.2,36c-0.1,12,0,24,0,36s0,24,0,36c0,12,0,24,0,36s0,24,0,36s0,24,0,36s0,24,0,36s0,24,0,36s0,24,0,36
		c0,11.9,0,23.8,0,36.4c-48.5,0-96,0-143.5,0C1414.2,1274.4,1413.7,791.7,1415.8,777.7z M1721.6,776.3c5.2-0.9,9.8-1.6,14.3-2.5
		c21.3-4.1,42.3-9.4,61.3-20.4c36.3-21.1,53.8-52.2,50.5-94.5c-2-25.6-12.1-46.7-33-62.3c-11.5-8.6-23.7-16-37.1-21.2
		c-24.9-9.6-50.7-13.9-77.2-14c-34.3-0.1-68.6,0-102.9,0c-2.8,0-5.7,0.4-10.1,0.7C1632.6,634.2,1677,705.1,1721.6,776.3z"/>
</g>
</svg>
